<svg width="107" height="107" viewBox="0 0 107 107" fill="none" xmlns="http://www.w3.org/2000/svg">
<path d="M39.5602 67.5196C34.9256 67.4818 32.5737 63.0799 26.7777 63.9386C25.9538 62.179 31.0335 58.673 34.6005 59.854C37.6594 60.8668 38.9795 65.99 39.5602 67.5196Z" fill="#3E70BC"/>
<path d="M37.549 60.3909C33.1308 58.9955 32.1833 54.0988 26.3904 53.2197C26.1228 51.2963 32.0131 49.4354 35.0732 51.6102C37.6975 53.4753 37.4458 58.7587 37.549 60.3909Z" fill="#3E70BC"/>
<path d="M37.2438 53.2217C33.2549 50.8699 33.4395 45.8864 27.9946 43.7288C28.1689 41.7949 34.3286 41.3048 36.818 44.111C38.9528 46.5174 37.5124 51.6084 37.2438 53.2217Z" fill="#3E70BC"/>
<path d="M38.6428 45.9561C35.565 42.5031 37.2677 37.8137 32.7438 34.1027C33.5023 32.3141 39.5181 33.7213 41.0288 37.1508C42.3244 40.0918 39.3929 44.5015 38.6428 45.9561Z" fill="#3E70BC"/>
<path d="M42.2506 40.5718C40.4319 36.324 43.5404 32.4156 40.4326 27.4657C41.7217 26.0095 46.9781 29.2466 47.3182 32.9766C47.6099 36.1752 43.4253 39.4297 42.2506 40.5718Z" fill="#3E70BC"/>
<path d="M48.6585 36.1371C46.4461 32.079 49.1711 27.8961 45.6089 23.26C46.7546 21.6893 52.2938 24.4183 52.9852 28.0997C53.5781 31.2568 49.72 34.8897 48.6585 36.1371Z" fill="#3E70BC"/>
<path d="M68.5428 54.9896C68.5428 64.8172 61.8349 72.6339 53.7304 72.6339C45.6259 72.6339 38.918 64.8172 38.918 54.9896C38.918 45.162 45.6259 37.3452 53.7304 37.3452C61.8349 37.3452 68.5428 45.162 68.5428 54.9896Z" fill="#FFCE7B" stroke="#3E70BC"/>
<path d="M63.5748 60.7628C63.5748 67.3868 58.918 72.6339 53.3148 72.6339C47.7115 72.6339 43.0547 67.3868 43.0547 60.7628C43.0547 54.1387 47.7115 48.8916 53.3148 48.8916C58.918 48.8916 63.5748 54.1387 63.5748 60.7628Z" stroke="#3E70BC"/>
<ellipse cx="53.3177" cy="64.8866" rx="4.96619" ry="8.24743" fill="#3E70BC"/>
<path d="M45.0231 73.1453C40.6712 75.1616 37.998 72.2759 32.6516 75.6055C31.6921 74.4006 36.0858 69.0268 39.5574 68.5024C42.5344 68.0527 44.3161 72.038 45.0231 73.1453Z" fill="#3E70BC"/>
<path d="M53.0258 74.8838C50.3262 78.8378 46.5465 77.7254 43.6686 83.3149C42.2249 82.7704 43.2333 75.9122 45.9444 73.6888C48.2693 71.7822 51.8491 74.2942 53.0258 74.8838Z" fill="#3E70BC"/>
<path d="M66.5491 68.3444C71.1838 68.3065 73.5357 63.9046 79.3317 64.7633C80.1556 63.0037 75.0759 59.4977 71.5089 60.6787C68.45 61.6915 67.1299 66.8147 66.5491 68.3444Z" fill="#3E70BC"/>
<path d="M69.9667 60.3909C74.3848 58.9955 75.3323 54.0988 81.1252 53.2197C81.3928 51.2963 75.5025 49.4354 72.4424 51.6102C69.8182 53.4753 70.0699 58.7587 69.9667 60.3909Z" fill="#3E70BC"/>
<path d="M70.2719 53.2217C74.2607 50.8699 74.0761 45.8864 79.521 43.7288C79.3467 41.7949 73.187 41.3048 70.6976 44.111C68.5628 46.5174 70.0032 51.6084 70.2719 53.2217Z" fill="#3E70BC"/>
<path d="M68.8729 45.9561C71.9507 42.5031 70.2479 37.8137 74.7718 34.1027C74.0133 32.3141 67.9975 33.7213 66.4868 37.1508C65.1913 40.0918 68.1227 44.5015 68.8729 45.9561Z" fill="#3E70BC"/>
<path d="M65.2651 40.5718C67.0838 36.324 63.9752 32.4156 67.0831 27.4657C65.794 26.0095 60.5375 29.2466 60.1974 32.9766C59.9058 36.1752 64.0903 39.4297 65.2651 40.5718Z" fill="#3E70BC"/>
<path d="M57.4871 36.5552C60.1918 32.8049 58.0136 28.3151 62.1301 24.1597C61.1908 22.4585 55.3523 24.4753 54.204 28.0415C53.2192 31.0998 56.5907 35.1853 57.4871 36.5552Z" fill="#3E70BC"/>
<path d="M61.4769 73.1453C65.8288 75.1616 68.502 72.2759 73.8484 75.6055C74.8079 74.4006 70.4142 69.0268 66.9426 68.5024C63.9656 68.0527 62.1839 72.038 61.4769 73.1453Z" fill="#3E70BC"/>
<path d="M53.5375 75.1561C56.3622 79.0223 60.1044 77.7904 63.1598 83.2856C64.5853 82.6955 63.358 75.8728 60.5771 73.7367C58.1924 71.9049 54.6947 74.5293 53.5375 75.1561Z" fill="#3E70BC"/>
</svg>
