<svg width="20" height="32" viewBox="0 0 20 32" fill="none" xmlns="http://www.w3.org/2000/svg">
<path fill-rule="evenodd" clip-rule="evenodd" d="M8.6407 1.62814C8.11426 2.52362 7.3778 3.77627 7.00412 4.41183C6.63044 5.04738 6.08914 5.96807 5.80123 6.4578C5.51332 6.94754 4.81313 8.13836 4.24527 9.10407C3.67741 10.0698 2.88059 11.4249 2.47456 12.1155C2.06852 12.8061 1.34491 14.0367 0.86652 14.8502C0.388132 15.6637 -0.00180458 16.3305 6.28184e-06 16.332C0.00181715 16.3335 0.367972 16.5621 0.813685 16.8401C1.2594 17.1179 2.15758 17.6782 2.80964 18.0851C3.4617 18.4921 4.25183 18.985 4.56548 19.1807C4.87913 19.3763 5.40138 19.7021 5.72603 19.9047C6.05069 20.1073 6.55042 20.4191 6.83656 20.5976C7.1227 20.7762 7.8588 21.2355 8.47234 21.6184C9.08589 22.0013 9.59463 22.3146 9.60288 22.3146C9.61114 22.3146 10.1199 22.0013 10.7334 21.6184C11.347 21.2355 12.0831 20.7762 12.3692 20.5976C12.6553 20.4191 13.1551 20.1073 13.4797 19.9047C13.8044 19.7021 14.3266 19.3763 14.6403 19.1807C14.9539 18.985 15.7441 18.4921 16.3961 18.0851C17.0482 17.6782 17.9464 17.1179 18.3921 16.8401C18.8378 16.5621 19.2039 16.3335 19.2058 16.332C19.2076 16.3305 18.8176 15.6637 18.3392 14.8502C17.8609 14.0367 17.1372 12.8061 16.7312 12.1155C16.3252 11.4249 15.5284 10.0698 14.9605 9.10407C14.3926 8.13836 13.6924 6.94754 13.4045 6.4578C13.1166 5.96807 12.5753 5.04738 12.2016 4.41183C11.828 3.77627 11.0915 2.52362 10.5651 1.62814C10.0386 0.73266 9.60563 0 9.60288 0C9.60013 0 9.16715 0.73266 8.6407 1.62814ZM0.0311111 18.316C0.0500902 18.3421 0.292026 18.6876 0.568738 19.0838C0.84545 19.48 1.26853 20.0856 1.50891 20.4295C1.74929 20.7734 2.61447 22.0115 3.43155 23.1808C4.24862 24.3501 5.20974 25.7255 5.56738 26.2372C5.92502 26.749 6.64704 27.7822 7.17189 28.5333C7.69674 29.2845 8.4565 30.3717 8.86026 30.9495C9.26401 31.5273 9.59819 32 9.60288 32C9.60757 32 9.94175 31.5273 10.3455 30.9495C10.7493 30.3717 11.509 29.2845 12.0339 28.5333C12.5587 27.7822 13.4097 26.5644 13.9251 25.8271C14.4404 25.0897 15.4329 23.6693 16.1308 22.6705C17.5399 20.6539 17.8559 20.2017 18.6553 19.0588C18.9574 18.6269 19.2037 18.2722 19.2025 18.2708C19.2014 18.2693 18.96 18.4182 18.6662 18.6016C18.0561 18.9825 16.8086 19.7609 15.8409 20.3646C15.4777 20.5912 14.8789 20.9648 14.5102 21.1948C14.1415 21.4249 13.6328 21.7423 13.3797 21.9002C13.1266 22.0581 12.5818 22.3979 12.1691 22.6555C11.7564 22.9131 11.2657 23.2193 11.0786 23.3359C10.8915 23.4525 10.4849 23.7062 10.175 23.8996C9.86513 24.093 9.60767 24.2513 9.60288 24.2513C9.59809 24.2513 9.34064 24.093 9.03076 23.8996C8.72088 23.7062 8.31427 23.4525 8.12718 23.3359C7.94009 23.2193 7.44935 22.9131 7.03666 22.6555C6.62396 22.3979 6.0792 22.0581 5.82608 21.9002C5.57296 21.7423 5.06421 21.4249 4.69554 21.1948C4.32686 20.9648 3.72808 20.5912 3.3649 20.3646C2.39748 19.7611 1.14981 18.9826 0.539884 18.6018C0.246224 18.4184 0.00384812 18.2684 0.00127689 18.2684C-0.00130434 18.2684 0.0121221 18.2898 0.0311111 18.316Z" fill="#0C5B29"/>
</svg>
