<svg width="960" height="917" viewBox="0 0 960 917" fill="none" xmlns="http://www.w3.org/2000/svg">
<g clip-path="url(#clip0_1806_440949)">
<path fill-rule="evenodd" clip-rule="evenodd" d="M960.538 269.476C956.816 272.766 950.294 278.529 948.751 283.139C948.446 284.05 946.805 285.056 945.878 284.807C942.24 283.833 936.62 284.794 931.191 292.782C930.737 293.45 931.268 294.41 932.038 294.653C935.416 295.718 939.894 300.295 939.986 313.148C939.987 313.401 939.896 313.646 939.725 313.832C933.298 320.814 920.947 337.678 920.947 351.639C920.947 364.58 933.657 370.735 941.645 372.649C942.473 372.848 942.837 374.02 942.458 374.781C941.245 377.217 941.13 381.453 946.264 386.816C950.233 390.962 953.261 392.345 955.638 393.432C958.196 394.601 960 395.425 961.412 398.978C961.488 399.17 961.674 399.304 961.88 399.304C961.906 399.304 961.931 399.302 961.956 399.298C961.981 399.302 962.006 399.304 962.031 399.304C962.238 399.304 962.424 399.17 962.5 398.978C963.912 395.425 965.716 394.601 968.274 393.432C970.651 392.345 973.679 390.962 977.648 386.816C982.781 381.453 982.667 377.217 981.454 374.781C981.074 374.02 981.439 372.848 982.266 372.649C990.255 370.735 1002.96 364.58 1002.96 351.639C1002.96 337.678 990.614 320.814 984.187 313.832C984.015 313.646 983.924 313.401 983.926 313.148C984.017 300.295 988.496 295.718 991.873 294.653C992.644 294.41 993.175 293.45 992.721 292.782C987.292 284.794 981.672 283.833 978.034 284.807C977.107 285.056 975.465 284.05 975.161 283.139C973.618 278.529 967.096 272.766 963.374 269.476C963.078 269.215 962.799 268.969 962.543 268.74C962.432 268.641 962.217 268.59 962.068 268.59C962.029 268.59 961.991 268.594 961.956 268.601C961.92 268.594 961.883 268.59 961.843 268.59C961.695 268.59 961.48 268.641 961.369 268.74C961.112 268.969 960.834 269.215 960.538 269.476Z" fill="#FFCE7B"/>
<path d="M948.751 283.139L948.988 283.219L948.988 283.219L948.751 283.139ZM960.538 269.476L960.372 269.289L960.372 269.289L960.538 269.476ZM945.878 284.807L945.943 284.566L945.943 284.566L945.878 284.807ZM931.191 292.782L930.984 292.641L930.984 292.641L931.191 292.782ZM932.038 294.653L932.114 294.415L932.114 294.415L932.038 294.653ZM939.986 313.148L939.736 313.149L939.736 313.149L939.986 313.148ZM939.725 313.832L939.541 313.663L939.541 313.663L939.725 313.832ZM941.645 372.649L941.587 372.892L941.587 372.892L941.645 372.649ZM942.458 374.781L942.682 374.893L942.682 374.893L942.458 374.781ZM946.264 386.816L946.444 386.643L946.444 386.643L946.264 386.816ZM955.638 393.432L955.534 393.659L955.534 393.659L955.638 393.432ZM961.412 398.978L961.644 398.886L961.644 398.886L961.412 398.978ZM961.956 399.298L961.994 399.051L961.956 399.045L961.918 399.051L961.956 399.298ZM962.5 398.978L962.268 398.886L962.268 398.886L962.5 398.978ZM968.274 393.432L968.17 393.204L968.17 393.204L968.274 393.432ZM977.648 386.816L977.467 386.643L977.467 386.643L977.648 386.816ZM981.454 374.781L981.678 374.67L981.678 374.67L981.454 374.781ZM982.266 372.649L982.325 372.892L982.325 372.892L982.266 372.649ZM984.187 313.832L984.371 313.663L984.371 313.663L984.187 313.832ZM983.926 313.148L983.676 313.146L983.676 313.146L983.926 313.148ZM991.873 294.653L991.948 294.892L991.948 294.892L991.873 294.653ZM992.721 292.782L992.514 292.922L992.514 292.922L992.721 292.782ZM978.034 284.807L978.098 285.049L978.098 285.049L978.034 284.807ZM975.161 283.139L975.398 283.06L975.398 283.06L975.161 283.139ZM963.374 269.476L963.208 269.663L963.208 269.663L963.374 269.476ZM962.543 268.74L962.709 268.553L962.709 268.553L962.543 268.74ZM961.956 268.601L961.906 268.846L961.956 268.856L962.006 268.846L961.956 268.601ZM961.369 268.74L961.535 268.927L961.535 268.927L961.369 268.74ZM948.988 283.219C949.741 280.969 951.723 278.41 954.009 275.984C956.289 273.565 958.841 271.309 960.703 269.663L960.372 269.289C958.512 270.933 955.943 273.203 953.645 275.641C951.354 278.072 949.304 280.699 948.514 283.06L948.988 283.219ZM945.813 285.049C946.101 285.126 946.424 285.102 946.737 285.022C947.053 284.941 947.376 284.8 947.675 284.623C948.261 284.276 948.808 283.757 948.988 283.219L948.514 283.06C948.389 283.432 947.964 283.871 947.42 284.193C947.155 284.35 946.876 284.47 946.613 284.537C946.349 284.605 946.119 284.613 945.943 284.566L945.813 285.049ZM931.398 292.922C934.093 288.957 936.821 286.756 939.307 285.663C941.791 284.57 944.047 284.576 945.813 285.049L945.943 284.566C944.071 284.065 941.698 284.064 939.105 285.205C936.514 286.345 933.718 288.618 930.984 292.641L931.398 292.922ZM932.114 294.415C931.799 294.316 931.525 294.065 931.38 293.767C931.236 293.472 931.233 293.164 931.398 292.922L930.984 292.641C930.694 293.068 930.73 293.574 930.931 293.986C931.13 294.396 931.507 294.748 931.963 294.892L932.114 294.415ZM940.236 313.146C940.144 300.249 935.645 295.528 932.114 294.415L931.963 294.892C935.187 295.908 939.645 300.342 939.736 313.149L940.236 313.146ZM939.909 314.001C940.125 313.767 940.238 313.46 940.236 313.146L939.736 313.149C939.737 313.342 939.668 313.524 939.541 313.663L939.909 314.001ZM921.197 351.639C921.197 344.724 924.259 337.063 928.143 330.242C932.024 323.426 936.706 317.48 939.909 314.001L939.541 313.663C936.316 317.166 931.61 323.142 927.709 329.995C923.81 336.841 920.697 344.594 920.697 351.639H921.197ZM941.704 372.406C937.734 371.455 932.597 369.45 928.458 366.085C924.325 362.724 921.197 358.016 921.197 351.639H920.697C920.697 358.203 923.925 363.043 928.143 366.473C932.356 369.899 937.568 371.929 941.587 372.892L941.704 372.406ZM942.682 374.893C942.907 374.441 942.906 373.886 942.74 373.42C942.574 372.954 942.224 372.531 941.704 372.406L941.587 372.892C941.894 372.966 942.14 373.228 942.269 373.588C942.397 373.948 942.389 374.36 942.234 374.67L942.682 374.893ZM946.444 386.643C941.362 381.334 941.528 377.209 942.682 374.893L942.234 374.67C940.962 377.225 940.898 381.572 946.083 386.988L946.444 386.643ZM955.742 393.204C953.378 392.124 950.382 390.756 946.444 386.643L946.083 386.988C950.084 391.167 953.144 392.567 955.534 393.659L955.742 393.204ZM961.644 398.886C960.926 397.079 960.101 395.948 959.116 395.12C958.138 394.298 957.015 393.786 955.742 393.204L955.534 393.659C956.819 394.246 957.877 394.732 958.794 395.502C959.703 396.267 960.486 397.324 961.179 399.07L961.644 398.886ZM961.88 399.054C961.783 399.054 961.685 398.988 961.644 398.886L961.179 399.07C961.291 399.351 961.565 399.554 961.88 399.554V399.054ZM961.918 399.051C961.906 399.053 961.893 399.054 961.88 399.054V399.554C961.919 399.554 961.957 399.551 961.994 399.546L961.918 399.051ZM961.918 399.546C961.955 399.551 961.993 399.554 962.031 399.554V399.054C962.019 399.054 962.006 399.053 961.994 399.051L961.918 399.546ZM962.031 399.554C962.347 399.554 962.621 399.351 962.732 399.07L962.268 398.886C962.227 398.988 962.128 399.054 962.031 399.054V399.554ZM962.732 399.07C963.426 397.324 964.208 396.267 965.118 395.502C966.034 394.732 967.093 394.246 968.378 393.659L968.17 393.204C966.897 393.786 965.774 394.298 964.796 395.12C963.811 395.948 962.985 397.079 962.268 398.886L962.732 399.07ZM968.378 393.659C970.768 392.567 973.828 391.167 977.829 386.988L977.467 386.643C973.529 390.756 970.534 392.124 968.17 393.204L968.378 393.659ZM977.829 386.988C983.014 381.572 982.95 377.225 981.678 374.67L981.23 374.893C982.384 377.209 982.549 381.334 977.467 386.643L977.829 386.988ZM981.678 374.67C981.523 374.36 981.515 373.948 981.643 373.588C981.771 373.228 982.017 372.966 982.325 372.892L982.208 372.406C981.688 372.531 981.338 372.954 981.172 373.42C981.006 373.886 981.005 374.441 981.23 374.893L981.678 374.67ZM982.325 372.892C986.343 371.929 991.556 369.899 995.769 366.473C999.987 363.043 1003.21 358.203 1003.21 351.639H1002.71C1002.71 358.016 999.587 362.724 995.453 366.085C991.315 369.45 986.178 371.455 982.208 372.406L982.325 372.892ZM1003.21 351.639C1003.21 344.594 1000.1 336.841 996.203 329.995C992.302 323.142 987.596 317.166 984.371 313.663L984.003 314.001C987.205 317.48 991.888 323.426 995.769 330.242C999.652 337.063 1002.71 344.724 1002.71 351.639H1003.21ZM984.371 313.663C984.244 313.524 984.175 313.342 984.176 313.149L983.676 313.146C983.674 313.46 983.787 313.767 984.003 314.001L984.371 313.663ZM984.176 313.149C984.267 300.342 988.725 295.908 991.948 294.892L991.798 294.415C988.267 295.528 983.768 300.249 983.676 313.146L984.176 313.149ZM991.948 294.892C992.405 294.748 992.781 294.396 992.981 293.986C993.182 293.574 993.218 293.068 992.928 292.641L992.514 292.922C992.678 293.164 992.675 293.472 992.531 293.767C992.386 294.065 992.112 294.316 991.798 294.415L991.948 294.892ZM992.928 292.641C990.193 288.618 987.397 286.345 984.806 285.205C982.214 284.064 979.841 284.065 977.969 284.566L978.098 285.049C979.865 284.576 982.121 284.57 984.605 285.663C987.091 286.756 989.819 288.957 992.514 292.922L992.928 292.641ZM977.969 284.566C977.793 284.613 977.563 284.605 977.298 284.537C977.036 284.47 976.757 284.35 976.491 284.193C975.948 283.871 975.522 283.432 975.398 283.06L974.924 283.219C975.104 283.757 975.651 284.276 976.236 284.623C976.535 284.8 976.859 284.941 977.175 285.022C977.488 285.102 977.811 285.126 978.098 285.049L977.969 284.566ZM975.398 283.06C974.608 280.699 972.557 278.072 970.266 275.641C967.969 273.203 965.399 270.933 963.539 269.289L963.208 269.663C965.07 271.309 967.623 273.565 969.903 275.984C972.189 278.41 974.171 280.969 974.924 283.219L975.398 283.06ZM963.539 269.289C963.243 269.027 962.965 268.781 962.709 268.553L962.377 268.927C962.634 269.156 962.912 269.402 963.208 269.663L963.539 269.289ZM962.709 268.553C962.615 268.469 962.494 268.418 962.39 268.388C962.283 268.357 962.168 268.34 962.068 268.34V268.84C962.117 268.84 962.184 268.849 962.249 268.868C962.318 268.888 962.36 268.912 962.377 268.927L962.709 268.553ZM962.068 268.34C962.013 268.34 961.959 268.345 961.906 268.356L962.006 268.846C962.024 268.842 962.045 268.84 962.068 268.84V268.34ZM961.843 268.84C961.867 268.84 961.888 268.842 961.906 268.846L962.006 268.356C961.953 268.345 961.899 268.34 961.843 268.34V268.84ZM961.535 268.927C961.552 268.912 961.594 268.888 961.662 268.868C961.727 268.849 961.794 268.84 961.843 268.84V268.34C961.744 268.34 961.629 268.357 961.522 268.388C961.418 268.418 961.297 268.469 961.203 268.553L961.535 268.927ZM960.703 269.663C960.999 269.402 961.278 269.156 961.535 268.927L961.203 268.553C960.946 268.781 960.668 269.027 960.372 269.289L960.703 269.663Z" fill="#3E70BC"/>
<path d="M961.956 407.213C951.913 396.598 952.959 402.01 941.87 391.603C934.782 384.95 935.443 381.683 935.576 378.587C935.594 378.156 935.319 377.776 934.913 377.629C926.701 374.661 913.837 365.701 914.461 350.806C915.081 336.01 926.147 319.462 933.029 311.959C933.2 311.773 933.292 311.525 933.29 311.272C933.177 298.189 927.549 298.855 924.331 296.623C924.039 296.421 923.913 296.06 923.996 295.714C925.799 288.215 936.202 278.338 943.01 279.393C943.548 279.476 944.114 279.209 944.381 278.734C947.179 273.774 959.994 261.513 961.956 261.513" stroke="#3E70BC" stroke-width="1.5" stroke-linecap="round" stroke-linejoin="round"/>
<path fill-rule="evenodd" clip-rule="evenodd" d="M637.399 355.732C635.82 360.443 633.054 368.695 634.023 373.459C634.214 374.4 633.296 376.092 632.369 376.34C628.731 377.316 624.345 380.958 623.637 390.59C623.578 391.395 624.519 391.962 625.307 391.787C628.765 391.02 634.932 392.746 641.437 403.831C641.565 404.049 641.609 404.307 641.553 404.554C639.479 413.814 637.216 434.595 644.197 446.686C650.667 457.894 664.751 456.87 672.627 454.533C673.443 454.291 674.344 455.124 674.397 455.974C674.564 458.689 676.583 462.416 683.71 464.493C689.22 466.099 692.535 465.784 695.136 465.536C697.936 465.27 699.911 465.082 702.91 467.453C703.071 467.581 703.3 467.604 703.478 467.501C703.501 467.488 703.522 467.474 703.541 467.458C703.564 467.449 703.587 467.438 703.609 467.425C703.788 467.322 703.882 467.113 703.852 466.909C703.298 463.126 704.448 461.51 706.079 459.218C707.594 457.089 709.524 454.377 710.889 448.801C712.653 441.59 710.435 437.979 708.167 436.476C707.458 436.006 707.187 434.809 707.805 434.223C713.766 428.571 721.695 416.886 715.224 405.678C708.243 393.587 689.115 385.156 680.058 382.323C679.816 382.248 679.615 382.081 679.49 381.861C673.143 370.685 674.732 364.481 677.125 361.87C677.67 361.275 677.65 360.177 676.923 359.825C668.227 355.622 662.88 357.6 660.216 360.263C659.538 360.941 657.613 360.89 656.894 360.254C653.253 357.033 644.723 355.302 639.855 354.315C639.468 354.236 639.104 354.162 638.767 354.093C638.621 354.062 638.41 354.125 638.281 354.2C638.247 354.219 638.216 354.241 638.189 354.265C638.155 354.277 638.12 354.292 638.086 354.312C637.957 354.387 637.797 354.538 637.75 354.679C637.642 355.006 637.524 355.358 637.399 355.732Z" fill="#FFCE7B"/>
<path d="M634.023 373.459L633.778 373.509L633.778 373.509L634.023 373.459ZM637.399 355.732L637.162 355.653L637.162 355.653L637.399 355.732ZM632.369 376.34L632.434 376.582L632.434 376.582L632.369 376.34ZM623.637 390.59L623.388 390.571L623.388 390.571L623.637 390.59ZM625.307 391.787L625.361 392.031L625.361 392.031L625.307 391.787ZM641.437 403.831L641.653 403.704L641.653 403.704L641.437 403.831ZM641.553 404.554L641.309 404.499L641.309 404.499L641.553 404.554ZM672.627 454.533L672.556 454.294L672.556 454.294L672.627 454.533ZM674.397 455.974L674.646 455.958L674.646 455.958L674.397 455.974ZM683.71 464.493L683.64 464.733L683.64 464.733L683.71 464.493ZM695.136 465.536L695.16 465.785L695.16 465.785L695.136 465.536ZM702.91 467.453L702.755 467.649L702.755 467.649L702.91 467.453ZM703.541 467.458L703.45 467.225L703.415 467.239L703.385 467.263L703.541 467.458ZM703.852 466.909L704.099 466.872L704.099 466.872L703.852 466.909ZM706.079 459.218L706.283 459.363L706.283 459.363L706.079 459.218ZM710.889 448.801L711.132 448.861L711.132 448.861L710.889 448.801ZM708.167 436.476L708.305 436.268L708.305 436.268L708.167 436.476ZM707.805 434.223L707.633 434.042L707.633 434.042L707.805 434.223ZM680.058 382.323L680.133 382.085L680.133 382.085L680.058 382.323ZM679.49 381.861L679.273 381.985L679.273 381.985L679.49 381.861ZM677.125 361.87L677.309 362.039L677.309 362.039L677.125 361.87ZM676.923 359.825L676.814 360.051L676.814 360.051L676.923 359.825ZM660.216 360.263L660.393 360.439L660.393 360.439L660.216 360.263ZM656.894 360.254L657.06 360.067L657.06 360.067L656.894 360.254ZM639.855 354.315L639.904 354.07L639.904 354.07L639.855 354.315ZM638.767 354.093L638.716 354.337L638.716 354.337L638.767 354.093ZM638.189 354.265L638.269 354.502L638.317 354.486L638.355 354.453L638.189 354.265ZM637.75 354.679L637.988 354.758L637.988 354.758L637.75 354.679ZM634.268 373.409C633.795 371.085 634.232 367.877 634.999 364.633C635.764 361.398 636.846 358.168 637.636 355.812L637.162 355.653C636.373 358.007 635.283 361.258 634.512 364.518C633.744 367.769 633.282 371.069 633.778 373.509L634.268 373.409ZM632.434 376.582C632.721 376.505 632.989 376.322 633.22 376.096C633.453 375.869 633.663 375.585 633.833 375.282C634.167 374.689 634.381 373.966 634.268 373.409L633.778 373.509C633.856 373.893 633.707 374.486 633.398 375.037C633.246 375.305 633.065 375.55 632.871 375.738C632.675 375.929 632.48 376.051 632.304 376.099L632.434 376.582ZM623.887 390.608C624.238 385.827 625.5 382.557 627.106 380.367C628.711 378.178 630.667 377.055 632.434 376.582L632.304 376.099C630.433 376.6 628.378 377.787 626.703 380.071C625.029 382.354 623.744 385.721 623.388 390.571L623.887 390.608ZM625.253 391.543C624.932 391.614 624.569 391.534 624.294 391.349C624.022 391.165 623.865 390.899 623.887 390.608L623.388 390.571C623.35 391.086 623.634 391.506 624.014 391.763C624.393 392.019 624.894 392.134 625.361 392.031L625.253 391.543ZM641.653 403.704C635.125 392.581 628.868 390.741 625.253 391.543L625.361 392.031C628.661 391.299 634.738 392.91 641.222 403.957L641.653 403.704ZM641.797 404.609C641.867 404.297 641.812 403.976 641.653 403.704L641.222 403.957C641.319 404.123 641.35 404.316 641.309 404.499L641.797 404.609ZM644.413 446.561C640.955 440.572 639.776 432.406 639.729 424.557C639.682 416.714 640.764 409.223 641.797 404.609L641.309 404.499C640.268 409.145 639.181 416.674 639.229 424.56C639.277 432.439 640.457 440.709 643.98 446.811L644.413 446.561ZM672.556 454.294C668.642 455.455 663.191 456.287 657.925 455.442C652.664 454.598 647.602 452.084 644.413 446.561L643.98 446.811C647.262 452.496 652.477 455.074 657.845 455.935C663.207 456.796 668.736 455.948 672.698 454.773L672.556 454.294ZM674.646 455.958C674.615 455.455 674.337 454.974 673.96 454.654C673.584 454.333 673.069 454.142 672.556 454.294L672.698 454.773C673.001 454.683 673.345 454.787 673.636 455.035C673.927 455.282 674.126 455.643 674.147 455.989L674.646 455.958ZM683.78 464.253C676.724 462.196 674.805 458.541 674.646 455.958L674.147 455.989C674.322 458.838 676.441 462.635 683.64 464.733L683.78 464.253ZM695.112 465.287C692.525 465.534 689.247 465.847 683.78 464.253L683.64 464.733C689.194 466.352 692.544 466.034 695.16 465.785L695.112 465.287ZM703.065 467.257C701.54 466.051 700.259 465.484 698.992 465.259C697.734 465.036 696.506 465.155 695.112 465.287L695.16 465.785C696.566 465.651 697.725 465.542 698.905 465.751C700.075 465.959 701.281 466.483 702.755 467.649L703.065 467.257ZM703.353 467.284C703.269 467.333 703.151 467.325 703.065 467.257L702.755 467.649C702.991 467.836 703.33 467.875 703.603 467.718L703.353 467.284ZM703.385 467.263C703.375 467.271 703.365 467.278 703.353 467.284L703.603 467.718C703.637 467.698 703.668 467.677 703.697 467.653L703.385 467.263ZM703.632 467.691C703.667 467.678 703.701 467.661 703.734 467.642L703.484 467.209C703.473 467.215 703.462 467.221 703.45 467.225L703.632 467.691ZM703.734 467.642C704.007 467.484 704.143 467.171 704.099 466.872L703.605 466.945C703.621 467.054 703.568 467.16 703.484 467.209L703.734 467.642ZM704.099 466.872C703.827 465.013 703.976 463.707 704.381 462.59C704.79 461.464 705.463 460.515 706.283 459.363L705.875 459.073C705.064 460.214 704.347 461.218 703.911 462.419C703.472 463.629 703.323 465.021 703.605 466.945L704.099 466.872ZM706.283 459.363C707.806 457.222 709.757 454.48 711.132 448.861L710.646 448.742C709.292 454.274 707.382 456.956 705.875 459.073L706.283 459.363ZM711.132 448.861C712.914 441.577 710.685 437.844 708.305 436.268L708.029 436.684C710.186 438.113 712.393 441.603 710.646 448.742L711.132 448.861ZM708.305 436.268C708.016 436.076 707.803 435.724 707.734 435.348C707.665 434.972 707.748 434.622 707.977 434.405L707.633 434.042C707.245 434.41 707.153 434.952 707.242 435.438C707.332 435.925 707.609 436.406 708.029 436.684L708.305 436.268ZM707.977 434.405C710.976 431.561 714.474 427.197 716.41 422.123C718.348 417.043 718.723 411.238 715.44 405.553L715.007 405.803C718.196 411.326 717.842 416.967 715.943 421.945C714.041 426.929 710.595 431.233 707.633 434.042L707.977 434.405ZM715.44 405.553C711.917 399.451 705.345 394.294 698.546 390.313C691.741 386.329 684.677 383.506 680.133 382.085L679.983 382.562C684.496 383.974 691.525 386.782 698.293 390.745C705.067 394.71 711.549 399.814 715.007 405.803L715.44 405.553ZM680.133 382.085C679.953 382.029 679.802 381.905 679.707 381.738L679.273 381.985C679.428 382.258 679.679 382.467 679.983 382.562L680.133 382.085ZM679.707 381.738C673.382 370.6 675.025 364.531 677.309 362.039L676.94 361.701C674.439 364.431 672.903 370.769 679.273 381.985L679.707 381.738ZM677.309 362.039C677.632 361.686 677.783 361.194 677.75 360.739C677.718 360.281 677.496 359.825 677.032 359.6L676.814 360.051C677.077 360.178 677.228 360.446 677.252 360.774C677.275 361.104 677.163 361.458 676.94 361.701L677.309 362.039ZM677.032 359.6C672.652 357.484 669.094 356.913 666.28 357.221C663.465 357.529 661.41 358.716 660.04 360.086L660.393 360.439C661.687 359.146 663.637 358.013 666.335 357.718C669.034 357.422 672.498 357.964 676.814 360.051L677.032 359.6ZM660.04 360.086C659.911 360.215 659.707 360.322 659.444 360.396C659.184 360.47 658.882 360.505 658.573 360.501C657.942 360.494 657.354 360.327 657.06 360.067L656.729 360.442C657.154 360.818 657.887 360.994 658.568 361.001C658.915 361.005 659.266 360.966 659.58 360.878C659.891 360.79 660.183 360.65 660.393 360.439L660.04 360.086ZM657.06 360.067C655.195 358.418 652.106 357.167 648.906 356.208C645.698 355.245 642.337 354.563 639.904 354.07L639.805 354.56C642.24 355.054 645.579 355.731 648.763 356.687C651.956 357.644 654.952 358.87 656.729 360.442L657.06 360.067ZM639.904 354.07C639.517 353.991 639.154 353.917 638.818 353.848L638.716 354.337C639.053 354.407 639.418 354.481 639.805 354.56L639.904 354.07ZM638.818 353.848C638.694 353.822 638.564 353.838 638.458 353.864C638.35 353.891 638.242 353.933 638.156 353.983L638.406 354.416C638.448 354.392 638.511 354.366 638.577 354.35C638.646 354.333 638.694 354.333 638.716 354.337L638.818 353.848ZM638.156 353.983C638.108 354.011 638.064 354.043 638.024 354.078L638.355 354.453C638.369 354.44 638.386 354.428 638.406 354.416L638.156 353.983ZM638.211 354.529C638.232 354.517 638.251 354.508 638.269 354.502L638.11 354.028C638.059 354.045 638.009 354.068 637.961 354.096L638.211 354.529ZM637.988 354.758C637.995 354.737 638.019 354.695 638.068 354.643C638.115 354.594 638.169 354.553 638.211 354.529L637.961 354.096C637.875 354.146 637.784 354.217 637.707 354.298C637.632 354.376 637.553 354.481 637.513 354.601L637.988 354.758ZM637.636 355.812C637.761 355.437 637.88 355.085 637.988 354.758L637.513 354.601C637.405 354.927 637.287 355.278 637.162 355.653L637.636 355.812Z" fill="#3E70BC"/>
<path d="M707.499 474.313C693.493 470.141 697.105 474.305 682.298 470.836C672.834 468.619 671.773 465.459 670.339 462.711C670.14 462.328 669.711 462.137 669.287 462.213C660.69 463.748 645.07 462.42 638.163 449.208C631.301 436.083 632.61 416.219 634.819 406.28C634.873 406.033 634.829 405.773 634.701 405.555C628.061 394.281 623.52 397.671 619.617 397.347C619.263 397.318 618.973 397.068 618.872 396.727C616.684 389.331 620.754 375.575 627.177 373.085C627.686 372.888 628.042 372.374 628.036 371.829C627.979 366.134 632.946 349.108 634.645 348.127" stroke="#3E70BC" stroke-width="1.5" stroke-linecap="round" stroke-linejoin="round"/>
<path d="M707.499 474.313C710.888 460.098 712.688 465.308 717.088 450.751C719.9 441.445 717.694 438.947 716.03 436.331C715.799 435.967 715.848 435.5 716.126 435.171C721.753 428.494 728.413 414.302 720.425 401.714C712.49 389.209 694.632 380.411 684.921 377.354C684.679 377.278 684.476 377.109 684.351 376.889C677.907 365.502 683.114 363.264 684.785 359.723C684.937 359.401 684.865 359.025 684.621 358.768C679.309 353.175 665.361 349.822 659.993 354.139C659.569 354.481 658.946 354.532 658.476 354.255C653.573 351.357 636.344 347.146 634.645 348.127" stroke="#3E70BC" stroke-width="1.5" stroke-linecap="round" stroke-linejoin="round"/>
<path fill-rule="evenodd" clip-rule="evenodd" d="M400.394 592.253C401.381 597.121 403.112 605.651 406.333 609.293C406.969 610.012 407.02 611.936 406.341 612.615C403.679 615.278 401.701 620.626 405.904 629.321C406.256 630.048 407.354 630.069 407.949 629.523C410.56 627.13 416.763 625.541 427.94 631.888C428.16 632.014 428.327 632.215 428.402 632.456C431.235 641.513 439.666 660.641 451.757 667.622C462.965 674.093 474.65 666.164 480.302 660.203C480.888 659.586 482.085 659.856 482.555 660.566C484.058 662.834 487.669 665.052 494.88 663.287C500.456 661.923 503.168 659.993 505.297 658.477C507.589 656.846 509.205 655.696 512.988 656.25C513.192 656.28 513.401 656.186 513.504 656.008C513.517 655.985 513.528 655.963 513.537 655.939C513.553 655.92 513.567 655.899 513.58 655.877C513.683 655.698 513.66 655.47 513.532 655.308C511.161 652.309 511.349 650.335 511.615 647.535C511.863 644.933 512.178 641.619 510.572 636.108C508.495 628.981 504.768 626.962 502.053 626.795C501.203 626.743 500.37 625.841 500.612 625.025C502.949 617.15 503.973 603.066 492.765 596.595C480.674 589.614 459.893 591.877 450.633 593.952C450.386 594.007 450.128 593.964 449.91 593.836C438.825 587.33 437.099 581.163 437.866 577.706C438.041 576.917 437.474 575.977 436.669 576.036C427.037 576.744 423.395 581.13 422.419 584.767C422.171 585.695 420.479 586.613 419.538 586.422C414.774 585.453 406.521 588.219 401.811 589.797C401.437 589.923 401.085 590.041 400.758 590.149C400.617 590.196 400.466 590.356 400.391 590.485C400.371 590.519 400.356 590.553 400.344 590.587C400.32 590.615 400.298 590.645 400.279 590.679C400.204 590.808 400.141 591.02 400.172 591.165C400.241 591.502 400.315 591.866 400.394 592.253Z" fill="#FFCE7B"/>
<path d="M406.333 609.293L406.146 609.458L406.146 609.458L406.333 609.293ZM400.394 592.253L400.149 592.303L400.149 592.303L400.394 592.253ZM406.341 612.615L406.518 612.792L406.518 612.792L406.341 612.615ZM405.904 629.321L406.129 629.212L406.129 629.212L405.904 629.321ZM407.949 629.523L408.118 629.707L408.118 629.707L407.949 629.523ZM427.94 631.888L428.064 631.671L428.064 631.671L427.94 631.888ZM428.402 632.456L428.641 632.382L428.641 632.382L428.402 632.456ZM480.302 660.203L480.121 660.031L480.121 660.031L480.302 660.203ZM482.555 660.566L482.763 660.428L482.763 660.428L482.555 660.566ZM494.88 663.287L494.821 663.044L494.821 663.044L494.88 663.287ZM505.297 658.477L505.442 658.681L505.442 658.681L505.297 658.477ZM512.988 656.25L512.951 656.498L512.951 656.498L512.988 656.25ZM513.537 655.939L513.342 655.783L513.318 655.813L513.304 655.849L513.537 655.939ZM513.532 655.308L513.728 655.153L513.728 655.153L513.532 655.308ZM511.615 647.535L511.864 647.558L511.864 647.558L511.615 647.535ZM510.572 636.108L510.332 636.178L510.332 636.178L510.572 636.108ZM502.053 626.795L502.068 626.545L502.068 626.545L502.053 626.795ZM500.612 625.025L500.373 624.954L500.373 624.954L500.612 625.025ZM450.633 593.952L450.688 594.196L450.688 594.196L450.633 593.952ZM449.91 593.836L449.783 594.051L449.783 594.051L449.91 593.836ZM437.866 577.706L438.11 577.76L438.11 577.76L437.866 577.706ZM436.669 576.036L436.687 576.285L436.687 576.285L436.669 576.036ZM422.419 584.767L422.661 584.832L422.661 584.832L422.419 584.767ZM419.538 586.422L419.588 586.177L419.588 586.177L419.538 586.422ZM401.811 589.797L401.732 589.56L401.732 589.56L401.811 589.797ZM400.758 590.149L400.837 590.386L400.837 590.386L400.758 590.149ZM400.344 590.587L400.532 590.753L400.565 590.715L400.581 590.667L400.344 590.587ZM400.172 591.165L400.416 591.115L400.416 591.115L400.172 591.165ZM406.521 609.127C404.949 607.35 403.723 604.354 402.765 601.161C401.81 597.978 401.133 594.639 400.639 592.203L400.149 592.303C400.642 594.736 401.324 598.096 402.287 601.305C403.246 604.504 404.497 607.594 406.146 609.458L406.521 609.127ZM406.518 612.792C406.729 612.581 406.869 612.289 406.957 611.978C407.045 611.664 407.084 611.313 407.08 610.966C407.073 610.286 406.897 609.552 406.521 609.127L406.146 609.458C406.406 609.752 406.573 610.34 406.58 610.972C406.584 611.28 406.548 611.582 406.475 611.843C406.401 612.106 406.294 612.309 406.165 612.438L406.518 612.792ZM406.129 629.212C404.043 624.896 403.501 621.433 403.797 618.733C404.092 616.036 405.225 614.085 406.518 612.792L406.165 612.438C404.795 613.808 403.608 615.863 403.3 618.679C402.992 621.493 403.563 625.051 405.679 629.43L406.129 629.212ZM407.78 629.339C407.537 629.561 407.183 629.673 406.853 629.65C406.525 629.627 406.257 629.475 406.129 629.212L405.679 629.43C405.904 629.894 406.36 630.117 406.818 630.149C407.273 630.181 407.765 630.03 408.118 629.707L407.78 629.339ZM428.064 631.671C416.848 625.302 410.51 626.837 407.78 629.339L408.118 629.707C410.61 627.424 416.679 625.78 427.817 632.106L428.064 631.671ZM428.641 632.382C428.546 632.078 428.337 631.826 428.064 631.671L427.817 632.106C427.984 632.201 428.108 632.352 428.164 632.531L428.641 632.382ZM451.882 667.406C445.893 663.948 440.789 657.466 436.824 650.692C432.861 643.923 430.052 636.895 428.641 632.382L428.164 632.531C429.585 637.075 432.408 644.139 436.392 650.944C440.373 657.744 445.53 664.316 451.632 667.839L451.882 667.406ZM480.121 660.031C477.312 662.994 473.008 666.44 468.024 668.341C463.046 670.24 457.405 670.594 451.882 667.406L451.632 667.839C457.317 671.121 463.122 670.746 468.202 668.808C473.276 666.873 477.64 663.374 480.484 660.375L480.121 660.031ZM482.763 660.428C482.485 660.007 482.004 659.73 481.517 659.641C481.031 659.552 480.489 659.643 480.121 660.031L480.484 660.375C480.701 660.146 481.051 660.064 481.427 660.133C481.803 660.202 482.155 660.415 482.347 660.704L482.763 660.428ZM494.821 663.044C487.682 664.791 484.192 662.585 482.763 660.428L482.347 660.704C483.923 663.083 487.656 665.312 494.94 663.53L494.821 663.044ZM505.152 658.274C503.035 659.78 500.353 661.691 494.821 663.044L494.94 663.53C500.559 662.155 503.301 660.205 505.442 658.681L505.152 658.274ZM513.024 656.003C511.1 655.721 509.708 655.871 508.498 656.309C507.297 656.745 506.293 657.462 505.152 658.274L505.442 658.681C506.594 657.862 507.543 657.188 508.669 656.779C509.786 656.374 511.092 656.225 512.951 656.498L513.024 656.003ZM513.288 655.883C513.239 655.967 513.133 656.019 513.024 656.003L512.951 656.498C513.25 656.541 513.563 656.406 513.721 656.133L513.288 655.883ZM513.304 655.849C513.3 655.86 513.294 655.872 513.288 655.883L513.721 656.133C513.74 656.099 513.757 656.065 513.77 656.03L513.304 655.849ZM513.732 656.096C513.756 656.067 513.777 656.035 513.797 656.002L513.364 655.752C513.357 655.763 513.35 655.773 513.342 655.783L513.732 656.096ZM513.797 656.002C513.954 655.729 513.915 655.39 513.728 655.153L513.336 655.463C513.404 655.55 513.412 655.668 513.364 655.752L513.797 656.002ZM513.728 655.153C512.562 653.679 512.038 652.473 511.83 651.303C511.621 650.124 511.73 648.965 511.864 647.558L511.366 647.511C511.234 648.904 511.115 650.133 511.338 651.39C511.563 652.657 512.13 653.938 513.336 655.463L513.728 655.153ZM511.864 647.558C512.113 644.942 512.431 641.592 510.812 636.038L510.332 636.178C511.926 641.645 511.613 644.924 511.366 647.511L511.864 647.558ZM510.812 636.038C508.714 628.84 504.917 626.721 502.068 626.545L502.037 627.044C504.62 627.203 508.275 629.123 510.332 636.178L510.812 636.038ZM502.068 626.545C501.722 626.524 501.361 626.326 501.114 626.034C500.866 625.743 500.762 625.399 500.852 625.096L500.373 624.954C500.221 625.467 500.412 625.982 500.733 626.358C501.053 626.735 501.534 627.013 502.037 627.044L502.068 626.545ZM500.852 625.096C502.027 621.135 502.875 615.605 502.014 610.244C501.153 604.875 498.575 599.661 492.89 596.378L492.64 596.811C498.163 600 500.677 605.063 501.521 610.323C502.366 615.59 501.534 621.04 500.373 624.954L500.852 625.096ZM492.89 596.378C486.788 592.855 478.518 591.675 470.639 591.627C462.753 591.58 455.224 592.667 450.578 593.708L450.688 594.196C455.302 593.162 462.793 592.08 470.636 592.127C478.485 592.175 486.651 593.353 492.64 596.811L492.89 596.378ZM450.578 593.708C450.395 593.749 450.202 593.717 450.036 593.62L449.783 594.051C450.055 594.21 450.376 594.265 450.688 594.196L450.578 593.708ZM450.036 593.62C438.989 587.137 437.378 581.06 438.11 577.76L437.622 577.652C436.82 581.266 438.66 587.523 449.783 594.051L450.036 593.62ZM438.11 577.76C438.213 577.293 438.098 576.791 437.842 576.413C437.585 576.033 437.165 575.749 436.65 575.786L436.687 576.285C436.978 576.264 437.244 576.42 437.428 576.693C437.613 576.967 437.693 577.33 437.622 577.652L438.11 577.76ZM436.65 575.786C431.8 576.143 428.433 577.427 426.15 579.101C423.866 580.776 422.679 582.831 422.178 584.703L422.661 584.832C423.134 583.066 424.257 581.109 426.446 579.505C428.636 577.899 431.906 576.636 436.687 576.285L436.65 575.786ZM422.178 584.703C422.13 584.879 422.008 585.074 421.817 585.269C421.629 585.463 421.384 585.645 421.116 585.796C420.565 586.105 419.972 586.255 419.588 586.177L419.488 586.667C420.045 586.78 420.768 586.565 421.361 586.232C421.663 586.061 421.948 585.852 422.175 585.619C422.401 585.387 422.584 585.12 422.661 584.832L422.178 584.703ZM419.588 586.177C417.148 585.68 413.848 586.142 410.597 586.911C407.337 587.682 404.086 588.771 401.732 589.56L401.891 590.034C404.247 589.245 407.477 588.162 410.712 587.397C413.956 586.63 417.164 586.194 419.488 586.667L419.588 586.177ZM401.732 589.56C401.357 589.686 401.006 589.804 400.68 589.912L400.837 590.386C401.164 590.278 401.516 590.16 401.891 590.034L401.732 589.56ZM400.68 589.912C400.56 589.951 400.455 590.03 400.377 590.105C400.296 590.182 400.225 590.273 400.175 590.36L400.608 590.61C400.632 590.567 400.673 590.514 400.722 590.467C400.774 590.418 400.816 590.393 400.837 590.386L400.68 589.912ZM400.175 590.36C400.147 590.408 400.124 590.457 400.107 590.508L400.581 590.667C400.587 590.649 400.596 590.63 400.608 590.61L400.175 590.36ZM400.495 590.804C400.507 590.784 400.519 590.767 400.532 590.753L400.157 590.422C400.122 590.462 400.09 590.506 400.062 590.554L400.495 590.804ZM400.416 591.115C400.412 591.093 400.412 591.044 400.429 590.975C400.445 590.909 400.471 590.847 400.495 590.804L400.062 590.554C400.012 590.641 399.969 590.748 399.943 590.857C399.917 590.962 399.901 591.092 399.927 591.216L400.416 591.115ZM400.639 592.203C400.56 591.816 400.486 591.452 400.416 591.115L399.927 591.216C399.996 591.552 400.07 591.916 400.149 592.303L400.639 592.203Z" fill="#3E70BC"/>
<path d="M520.392 659.898C506.178 663.287 511.388 665.087 496.83 669.486C487.525 672.298 485.026 670.092 482.41 668.429C482.046 668.198 481.579 668.246 481.25 668.524C474.573 674.152 460.381 680.811 447.793 672.823C435.288 664.888 426.49 647.031 423.433 637.319C423.357 637.078 423.189 636.874 422.968 636.75C411.581 630.306 409.343 635.512 405.802 637.183C405.48 637.335 405.105 637.264 404.847 637.019C399.254 631.708 395.901 617.76 400.218 612.392C400.56 611.967 400.611 611.344 400.334 610.875C397.436 605.971 393.225 588.743 394.206 587.044" stroke="#3E70BC" stroke-width="1.5" stroke-linecap="round" stroke-linejoin="round"/>
<path d="M520.393 659.897C516.22 645.892 520.384 649.504 516.915 634.697C514.698 625.232 511.538 624.171 508.79 622.738C508.408 622.538 508.216 622.109 508.292 621.685C509.827 613.089 508.499 597.469 495.287 590.561C482.162 583.699 462.298 585.008 452.359 587.217C452.112 587.272 451.852 587.228 451.634 587.099C440.36 580.46 443.75 575.918 443.426 572.016C443.397 571.661 443.147 571.372 442.806 571.271C435.41 569.083 421.654 573.153 419.164 579.576C418.967 580.084 418.453 580.44 417.908 580.435C412.213 580.377 395.187 585.344 394.206 587.043" stroke="#3E70BC" stroke-width="1.5" stroke-linecap="round" stroke-linejoin="round"/>
<path fill-rule="evenodd" clip-rule="evenodd" d="M313.476 915.964C316.766 919.686 322.529 926.208 327.139 927.751C328.05 928.056 329.056 929.697 328.807 930.624C327.833 934.262 328.794 939.882 336.782 945.311C337.45 945.765 338.41 945.234 338.653 944.463C339.718 941.086 344.295 936.608 357.148 936.516C357.401 936.515 357.646 936.606 357.832 936.777C364.814 943.204 381.678 955.555 395.639 955.555C408.58 955.555 414.735 942.845 416.649 934.857C416.848 934.029 418.02 933.665 418.781 934.044C421.217 935.257 425.453 935.372 430.816 930.238C434.962 926.269 436.345 923.241 437.432 920.864C438.601 918.306 439.425 916.502 442.978 915.09C443.17 915.014 443.304 914.828 443.304 914.622C443.304 914.596 443.302 914.571 443.298 914.546C443.302 914.521 443.304 914.496 443.304 914.471C443.304 914.264 443.17 914.078 442.978 914.002C439.425 912.59 438.601 910.786 437.432 908.228C436.345 905.851 434.962 902.823 430.816 898.854C425.453 893.72 421.217 893.835 418.781 895.048C418.02 895.428 416.848 895.063 416.649 894.236C414.735 886.247 408.58 873.538 395.639 873.538C381.678 873.538 364.814 885.888 357.832 892.315C357.646 892.486 357.401 892.578 357.148 892.576C344.295 892.485 339.718 888.006 338.653 884.629C338.41 883.858 337.45 883.327 336.782 883.781C328.794 889.21 327.833 894.83 328.807 898.468C329.056 899.395 328.05 901.036 327.139 901.341C322.529 902.884 316.766 909.406 313.476 913.128C313.215 913.424 312.969 913.703 312.74 913.959C312.641 914.07 312.59 914.285 312.59 914.434C312.59 914.473 312.594 914.511 312.601 914.546C312.594 914.582 312.59 914.619 312.59 914.658C312.59 914.807 312.641 915.022 312.74 915.133C312.969 915.39 313.215 915.668 313.476 915.964Z" fill="#FFCE7B"/>
<path d="M327.139 927.751L327.219 927.514L327.219 927.514L327.139 927.751ZM313.476 915.964L313.289 916.13L313.289 916.13L313.476 915.964ZM328.807 930.624L328.566 930.559L328.566 930.559L328.807 930.624ZM336.782 945.311L336.641 945.518L336.641 945.518L336.782 945.311ZM338.653 944.463L338.415 944.388L338.415 944.388L338.653 944.463ZM357.148 936.516L357.149 936.766L357.149 936.766L357.148 936.516ZM357.832 936.777L357.663 936.961L357.663 936.961L357.832 936.777ZM416.649 934.857L416.892 934.915L416.892 934.915L416.649 934.857ZM418.781 934.044L418.893 933.82L418.893 933.82L418.781 934.044ZM430.816 930.238L430.643 930.058L430.643 930.058L430.816 930.238ZM437.432 920.864L437.659 920.968L437.659 920.968L437.432 920.864ZM442.978 915.09L442.886 914.858L442.886 914.858L442.978 915.09ZM443.298 914.546L443.051 914.508L443.045 914.546L443.051 914.584L443.298 914.546ZM442.978 914.002L442.886 914.234L442.886 914.234L442.978 914.002ZM437.432 908.228L437.204 908.332L437.204 908.332L437.432 908.228ZM430.816 898.854L430.643 899.035L430.643 899.035L430.816 898.854ZM418.781 895.048L418.67 894.824L418.67 894.824L418.781 895.048ZM416.649 894.236L416.892 894.177L416.892 894.177L416.649 894.236ZM357.832 892.315L357.663 892.131L357.663 892.131L357.832 892.315ZM357.148 892.576L357.146 892.826L357.146 892.826L357.148 892.576ZM338.653 884.629L338.892 884.554L338.892 884.554L338.653 884.629ZM336.782 883.781L336.922 883.988L336.922 883.988L336.782 883.781ZM328.807 898.468L329.049 898.404L329.049 898.404L328.807 898.468ZM327.139 901.341L327.06 901.104L327.06 901.104L327.139 901.341ZM313.476 913.128L313.663 913.294L313.663 913.294L313.476 913.128ZM312.74 913.959L312.553 913.793L312.553 913.793L312.74 913.959ZM312.601 914.546L312.846 914.596L312.856 914.546L312.846 914.496L312.601 914.546ZM312.74 915.133L312.927 914.967L312.927 914.967L312.74 915.133ZM327.219 927.514C324.969 926.761 322.41 924.779 319.984 922.493C317.565 920.213 315.309 917.661 313.663 915.798L313.289 916.13C314.933 917.99 317.203 920.559 319.641 922.857C322.072 925.148 324.699 927.198 327.06 927.988L327.219 927.514ZM329.049 930.689C329.126 930.401 329.102 930.078 329.022 929.765C328.941 929.449 328.8 929.126 328.623 928.827C328.276 928.241 327.757 927.694 327.219 927.514L327.06 927.988C327.432 928.113 327.871 928.538 328.193 929.081C328.35 929.347 328.47 929.626 328.537 929.889C328.605 930.153 328.613 930.383 328.566 930.559L329.049 930.689ZM336.922 945.104C332.957 942.409 330.756 939.681 329.663 937.195C328.57 934.711 328.576 932.455 329.049 930.689L328.566 930.559C328.065 932.431 328.064 934.804 329.205 937.397C330.345 939.988 332.618 942.784 336.641 945.518L336.922 945.104ZM338.415 944.388C338.316 944.702 338.065 944.977 337.767 945.122C337.472 945.266 337.164 945.268 336.922 945.104L336.641 945.518C337.068 945.808 337.574 945.772 337.986 945.571C338.396 945.372 338.748 944.995 338.892 944.539L338.415 944.388ZM357.146 936.266C344.249 936.358 339.528 940.857 338.415 944.388L338.892 944.539C339.908 941.315 344.342 936.857 357.149 936.766L357.146 936.266ZM358.001 936.593C357.767 936.377 357.46 936.264 357.146 936.266L357.149 936.766C357.342 936.765 357.524 936.834 357.663 936.961L358.001 936.593ZM395.639 955.305C388.724 955.305 381.063 952.243 374.242 948.359C367.426 944.478 361.48 939.796 358.001 936.593L357.663 936.961C361.166 940.186 367.142 944.892 373.995 948.793C380.841 952.692 388.594 955.805 395.639 955.805V955.305ZM416.406 934.798C415.455 938.768 413.45 943.905 410.085 948.044C406.724 952.177 402.016 955.305 395.639 955.305V955.805C402.203 955.805 407.043 952.577 410.473 948.359C413.899 944.146 415.929 938.934 416.892 934.915L416.406 934.798ZM418.893 933.82C418.441 933.595 417.886 933.596 417.42 933.762C416.954 933.928 416.531 934.278 416.406 934.798L416.892 934.915C416.966 934.608 417.228 934.361 417.588 934.233C417.948 934.105 418.36 934.113 418.67 934.268L418.893 933.82ZM430.643 930.058C425.334 935.14 421.209 934.974 418.893 933.82L418.67 934.268C421.225 935.54 425.572 935.604 430.988 930.419L430.643 930.058ZM437.204 920.76C436.124 923.124 434.756 926.12 430.643 930.058L430.988 930.419C435.167 926.418 436.567 923.358 437.659 920.968L437.204 920.76ZM442.886 914.858C441.079 915.576 439.948 916.401 439.12 917.386C438.298 918.364 437.786 919.487 437.204 920.76L437.659 920.968C438.246 919.683 438.732 918.625 439.502 917.708C440.267 916.799 441.324 916.016 443.07 915.323L442.886 914.858ZM443.054 914.622C443.054 914.719 442.988 914.817 442.886 914.858L443.07 915.323C443.351 915.211 443.554 914.937 443.554 914.622H443.054ZM443.051 914.584C443.053 914.596 443.054 914.609 443.054 914.622H443.554C443.554 914.583 443.551 914.545 443.546 914.508L443.051 914.584ZM443.546 914.584C443.551 914.547 443.554 914.509 443.554 914.471H443.054C443.054 914.483 443.053 914.496 443.051 914.508L443.546 914.584ZM443.554 914.471C443.554 914.155 443.351 913.881 443.07 913.77L442.886 914.234C442.988 914.275 443.054 914.374 443.054 914.471H443.554ZM443.07 913.77C441.324 913.076 440.267 912.294 439.502 911.384C438.732 910.468 438.246 909.409 437.659 908.124L437.204 908.332C437.786 909.605 438.298 910.728 439.12 911.706C439.948 912.691 441.079 913.517 442.886 914.234L443.07 913.77ZM437.659 908.124C436.567 905.734 435.167 902.674 430.988 898.673L430.643 899.035C434.756 902.973 436.124 905.968 437.204 908.332L437.659 908.124ZM430.988 898.673C425.572 893.488 421.225 893.552 418.67 894.824L418.893 895.272C421.209 894.118 425.334 893.953 430.643 899.035L430.988 898.673ZM418.67 894.824C418.36 894.979 417.948 894.987 417.588 894.859C417.228 894.731 416.966 894.485 416.892 894.177L416.406 894.294C416.531 894.814 416.954 895.164 417.42 895.33C417.886 895.496 418.441 895.497 418.893 895.272L418.67 894.824ZM416.892 894.177C415.929 890.159 413.899 884.946 410.473 880.733C407.043 876.515 402.203 873.288 395.639 873.288V873.788C402.016 873.788 406.724 876.915 410.085 881.049C413.45 885.187 415.455 890.324 416.406 894.294L416.892 894.177ZM395.639 873.288C388.594 873.288 380.841 876.401 373.995 880.299C367.142 884.2 361.166 888.906 357.663 892.131L358.001 892.499C361.48 889.296 367.426 884.614 374.242 880.733C381.063 876.85 388.724 873.788 395.639 873.788V873.288ZM357.663 892.131C357.524 892.258 357.342 892.327 357.149 892.326L357.146 892.826C357.46 892.828 357.767 892.715 358.001 892.499L357.663 892.131ZM357.149 892.326C344.342 892.235 339.908 887.777 338.892 884.554L338.415 884.704C339.528 888.235 344.249 892.734 357.146 892.826L357.149 892.326ZM338.892 884.554C338.748 884.097 338.396 883.721 337.986 883.521C337.574 883.32 337.068 883.284 336.641 883.574L336.922 883.988C337.164 883.824 337.472 883.826 337.767 883.97C338.065 884.115 338.316 884.39 338.415 884.704L338.892 884.554ZM336.641 883.574C332.618 886.309 330.345 889.105 329.205 891.696C328.064 894.288 328.065 896.661 328.566 898.533L329.049 898.404C328.576 896.637 328.57 894.381 329.663 891.897C330.756 889.411 332.957 886.683 336.922 883.988L336.641 883.574ZM328.566 898.533C328.613 898.709 328.605 898.939 328.537 899.204C328.47 899.466 328.35 899.745 328.193 900.011C327.871 900.554 327.432 900.98 327.06 901.104L327.219 901.578C327.757 901.398 328.276 900.851 328.623 900.266C328.8 899.967 328.941 899.643 329.022 899.327C329.102 899.014 329.126 898.691 329.049 898.404L328.566 898.533ZM327.06 901.104C324.699 901.894 322.072 903.945 319.641 906.236C317.203 908.533 314.933 911.102 313.289 912.963L313.663 913.294C315.309 911.432 317.565 908.879 319.984 906.599C322.41 904.313 324.969 902.331 327.219 901.578L327.06 901.104ZM313.289 912.963C313.027 913.259 312.781 913.537 312.553 913.793L312.927 914.125C313.156 913.868 313.402 913.59 313.663 913.294L313.289 912.963ZM312.553 913.793C312.469 913.887 312.418 914.008 312.388 914.112C312.357 914.219 312.34 914.334 312.34 914.434H312.84C312.84 914.385 312.849 914.317 312.868 914.252C312.888 914.184 312.912 914.142 312.927 914.125L312.553 913.793ZM312.34 914.434C312.34 914.489 312.345 914.543 312.356 914.596L312.846 914.496C312.842 914.478 312.84 914.457 312.84 914.434H312.34ZM312.84 914.658C312.84 914.635 312.842 914.614 312.846 914.596L312.356 914.496C312.345 914.549 312.34 914.603 312.34 914.658H312.84ZM312.927 914.967C312.912 914.95 312.888 914.908 312.868 914.84C312.849 914.775 312.84 914.707 312.84 914.658H312.34C312.34 914.758 312.357 914.873 312.388 914.98C312.418 915.084 312.469 915.205 312.553 915.299L312.927 914.967ZM313.663 915.798C313.402 915.503 313.156 915.224 312.927 914.967L312.553 915.299C312.781 915.556 313.027 915.833 313.289 916.13L313.663 915.798Z" fill="#3E70BC"/>
<path d="M451.213 914.546C440.598 924.589 446.01 923.543 435.603 934.632C428.95 941.72 425.683 941.059 422.587 940.926C422.156 940.908 421.776 941.183 421.629 941.589C418.661 949.801 409.701 962.664 394.806 962.041C380.01 961.421 363.462 950.355 355.959 943.473C355.773 943.302 355.525 943.21 355.272 943.212C342.189 943.325 342.855 948.953 340.623 952.171C340.421 952.463 340.06 952.589 339.714 952.506C332.215 950.703 322.338 940.3 323.393 933.492C323.476 932.954 323.209 932.388 322.734 932.12C317.774 929.323 305.513 916.508 305.513 914.546" stroke="#3E70BC" stroke-width="1.5" stroke-linecap="round" stroke-linejoin="round"/>
<path d="M451.213 914.546C440.598 904.503 446.01 905.549 435.603 894.46C428.95 887.372 425.683 888.033 422.587 888.166C422.156 888.184 421.776 887.908 421.629 887.503C418.661 879.291 409.701 866.427 394.806 867.051C380.01 867.671 363.462 878.737 355.959 885.619C355.773 885.79 355.525 885.882 355.272 885.88C342.189 885.767 342.855 880.139 340.623 876.921C340.421 876.628 340.06 876.502 339.714 876.586C332.215 878.389 322.338 888.792 323.393 895.599C323.476 896.138 323.209 896.703 322.734 896.971C317.774 899.769 305.513 912.584 305.513 914.546" stroke="#3E70BC" stroke-width="1.5" stroke-linecap="round" stroke-linejoin="round"/>
</g>
<defs>
<clipPath id="clip0_1806_440949">
<rect width="960" height="916.5" fill="white"/>
</clipPath>
</defs>
</svg>
