<svg width="396" height="396" viewBox="0 0 396 396" fill="none" xmlns="http://www.w3.org/2000/svg">
<mask id="path-1-inside-1_1133_294858" fill="white">
<path fill-rule="evenodd" clip-rule="evenodd" d="M198 396C307.352 396 396 307.352 396 198C396 88.6476 307.352 0 198 0C88.6476 0 0 88.6476 0 198C0 307.352 88.6476 396 198 396ZM198 387C302.382 387 387 302.382 387 198C387 93.6182 302.382 9 198 9C93.6182 9 9 93.6182 9 198C9 302.382 93.6182 387 198 387Z"/>
</mask>
<path fill-rule="evenodd" clip-rule="evenodd" d="M198 396C307.352 396 396 307.352 396 198C396 88.6476 307.352 0 198 0C88.6476 0 0 88.6476 0 198C0 307.352 88.6476 396 198 396ZM198 387C302.382 387 387 302.382 387 198C387 93.6182 302.382 9 198 9C93.6182 9 9 93.6182 9 198C9 302.382 93.6182 387 198 387Z" fill="#C46041"/>
<path d="M395 198C395 306.8 306.8 395 198 395V397C307.905 397 397 307.905 397 198H395ZM198 1C306.8 1 395 89.1999 395 198H397C397 88.0953 307.905 -1 198 -1V1ZM1 198C1 89.1999 89.1999 1 198 1V-1C88.0953 -1 -1 88.0953 -1 198H1ZM198 395C89.1999 395 1 306.8 1 198H-1C-1 307.905 88.0953 397 198 397V395ZM386 198C386 301.83 301.83 386 198 386V388C302.934 388 388 302.934 388 198H386ZM198 10C301.83 10 386 94.1705 386 198H388C388 93.0659 302.934 8 198 8V10ZM10 198C10 94.1705 94.1705 10 198 10V8C93.0659 8 8 93.0659 8 198H10ZM198 386C94.1705 386 10 301.83 10 198H8C8 302.934 93.0659 388 198 388V386Z" fill="#602D1B" mask="url(#path-1-inside-1_1133_294858)"/>
<path d="M198 8.5498L204.252 4.93259C204.585 4.74004 204.585 4.25957 204.252 4.06702L198 0.449804" stroke="#602D1B" stroke-width="0.5" stroke-linecap="round"/>
<path d="M214.511 9.27175L221.054 6.21319C221.403 6.05038 221.445 5.57174 221.13 5.35092L215.217 1.20257" stroke="#602D1B" stroke-width="0.5" stroke-linecap="round"/>
<path d="M230.897 11.428L237.682 8.9514C238.044 8.81956 238.127 8.3464 237.833 8.09898L232.304 3.45107" stroke="#602D1B" stroke-width="0.5" stroke-linecap="round"/>
<path d="M247.032 15.0056L254.008 13.1298C254.379 13.03 254.503 12.5659 254.232 12.2937L249.129 7.18165" stroke="#602D1B" stroke-width="0.5" stroke-linecap="round"/>
<path d="M262.797 19.975L269.909 18.7142C270.288 18.6471 270.452 18.1956 270.205 17.9009L265.568 12.3635" stroke="#602D1B" stroke-width="0.5" stroke-linecap="round"/>
<path d="M278.066 26.3005L285.261 25.6644C285.644 25.6305 285.847 25.195 285.627 24.8799L281.489 18.9594" stroke="#602D1B" stroke-width="0.5" stroke-linecap="round"/>
<path d="M292.726 33.9316L299.949 33.925C300.333 33.9247 300.574 33.5086 300.382 33.1754L296.776 26.9168" stroke="#602D1B" stroke-width="0.5" stroke-linecap="round"/>
<path d="M306.664 42.8111L313.86 43.4341C314.244 43.4672 314.519 43.0737 314.357 42.725L311.31 36.176" stroke="#602D1B" stroke-width="0.5" stroke-linecap="round"/>
<path d="M319.776 52.8726L326.891 54.1203C327.269 54.1867 327.578 53.8187 327.447 53.4572L324.983 46.6676" stroke="#602D1B" stroke-width="0.5" stroke-linecap="round"/>
<path d="M331.962 64.0385L338.941 65.9016C339.312 66.0008 339.652 65.661 339.553 65.2895L337.69 58.311" stroke="#602D1B" stroke-width="0.5" stroke-linecap="round"/>
<path d="M343.127 76.2236L349.917 78.6878C350.279 78.819 350.647 78.5102 350.58 78.1314L349.332 71.017" stroke="#602D1B" stroke-width="0.5" stroke-linecap="round"/>
<path d="M353.189 89.3353L359.738 92.3818C360.087 92.544 360.48 92.2684 360.447 91.8854L359.824 84.6893" stroke="#602D1B" stroke-width="0.5" stroke-linecap="round"/>
<path d="M362.069 103.276L368.328 106.881C368.661 107.073 369.077 106.833 369.078 106.449L369.084 99.2257" stroke="#602D1B" stroke-width="0.5" stroke-linecap="round"/>
<path d="M369.702 117.935L375.622 122.073C375.938 122.293 376.373 122.09 376.407 121.707L377.043 114.512" stroke="#602D1B" stroke-width="0.5" stroke-linecap="round"/>
<path d="M376.026 133.203L381.563 137.841C381.858 138.088 382.309 137.924 382.377 137.545L383.637 130.433" stroke="#602D1B" stroke-width="0.5" stroke-linecap="round"/>
<path d="M380.996 148.967L386.108 154.07C386.38 154.341 386.844 154.217 386.944 153.846L388.82 146.871" stroke="#602D1B" stroke-width="0.5" stroke-linecap="round"/>
<path d="M384.574 165.103L389.221 170.632C389.469 170.927 389.942 170.843 390.074 170.482L392.55 163.697" stroke="#602D1B" stroke-width="0.5" stroke-linecap="round"/>
<path d="M386.73 181.49L390.878 187.402C391.099 187.717 391.578 187.675 391.74 187.327L394.799 180.784" stroke="#602D1B" stroke-width="0.5" stroke-linecap="round"/>
<path d="M387.45 198L391.067 204.252C391.26 204.585 391.74 204.585 391.933 204.252L395.55 198" stroke="#602D1B" stroke-width="0.5" stroke-linecap="round"/>
<path d="M386.728 214.511L389.787 221.054C389.95 221.403 390.428 221.445 390.649 221.13L394.797 215.217" stroke="#602D1B" stroke-width="0.5" stroke-linecap="round"/>
<path d="M384.572 230.897L387.049 237.682C387.18 238.044 387.654 238.127 387.901 237.833L392.549 232.304" stroke="#602D1B" stroke-width="0.5" stroke-linecap="round"/>
<path d="M380.994 247.032L382.87 254.008C382.97 254.379 383.434 254.503 383.706 254.232L388.818 249.129" stroke="#602D1B" stroke-width="0.5" stroke-linecap="round"/>
<path d="M376.025 262.797L377.286 269.909C377.353 270.288 377.804 270.452 378.099 270.205L383.637 265.568" stroke="#602D1B" stroke-width="0.5" stroke-linecap="round"/>
<path d="M369.7 278.066L370.336 285.261C370.37 285.644 370.805 285.847 371.12 285.627L377.041 281.489" stroke="#602D1B" stroke-width="0.5" stroke-linecap="round"/>
<path d="M362.068 292.726L362.075 299.949C362.075 300.333 362.491 300.574 362.825 300.382L369.083 296.776" stroke="#602D1B" stroke-width="0.5" stroke-linecap="round"/>
<path d="M353.189 306.664L352.566 313.86C352.533 314.244 352.926 314.519 353.275 314.357L359.824 311.31" stroke="#602D1B" stroke-width="0.5" stroke-linecap="round"/>
<path d="M343.127 319.776L341.88 326.891C341.813 327.269 342.181 327.578 342.543 327.447L349.332 324.983" stroke="#602D1B" stroke-width="0.5" stroke-linecap="round"/>
<path d="M331.961 331.962L330.098 338.941C329.999 339.312 330.339 339.652 330.71 339.553L337.689 337.69" stroke="#602D1B" stroke-width="0.5" stroke-linecap="round"/>
<path d="M319.776 343.127L317.312 349.917C317.181 350.279 317.49 350.647 317.869 350.58L324.983 349.332" stroke="#602D1B" stroke-width="0.5" stroke-linecap="round"/>
<path d="M306.665 353.189L303.618 359.738C303.456 360.087 303.732 360.48 304.115 360.447L311.311 359.824" stroke="#602D1B" stroke-width="0.5" stroke-linecap="round"/>
<path d="M292.724 362.069L289.119 368.328C288.927 368.661 289.167 369.077 289.551 369.078L296.774 369.084" stroke="#602D1B" stroke-width="0.5" stroke-linecap="round"/>
<path d="M278.065 369.702L273.927 375.622C273.707 375.938 273.91 376.373 274.293 376.407L281.488 377.043" stroke="#602D1B" stroke-width="0.5" stroke-linecap="round"/>
<path d="M262.797 376.026L258.159 381.563C257.912 381.858 258.076 382.309 258.455 382.377L265.567 383.637" stroke="#602D1B" stroke-width="0.5" stroke-linecap="round"/>
<path d="M247.033 380.996L241.93 386.108C241.659 386.38 241.783 386.844 242.154 386.944L249.129 388.82" stroke="#602D1B" stroke-width="0.5" stroke-linecap="round"/>
<path d="M230.897 384.574L225.368 389.221C225.073 389.469 225.157 389.942 225.518 390.074L232.303 392.55" stroke="#602D1B" stroke-width="0.5" stroke-linecap="round"/>
<path d="M214.51 386.73L208.598 390.878C208.283 391.099 208.325 391.578 208.673 391.74L215.216 394.799" stroke="#602D1B" stroke-width="0.5" stroke-linecap="round"/>
<path d="M198 387.308L191.748 390.925C191.415 391.117 191.415 391.598 191.748 391.79L198 395.408" stroke="#602D1B" stroke-width="0.5" stroke-linecap="round"/>
<path d="M181.489 386.586L174.946 389.644C174.597 389.807 174.555 390.286 174.87 390.507L180.783 394.655" stroke="#602D1B" stroke-width="0.5" stroke-linecap="round"/>
<path d="M165.103 384.429L158.318 386.906C157.956 387.038 157.873 387.511 158.167 387.758L163.696 392.406" stroke="#602D1B" stroke-width="0.5" stroke-linecap="round"/>
<path d="M148.968 380.852L141.992 382.728C141.621 382.827 141.497 383.292 141.768 383.564L146.871 388.676" stroke="#602D1B" stroke-width="0.5" stroke-linecap="round"/>
<path d="M133.203 375.882L126.091 377.143C125.712 377.21 125.548 377.662 125.795 377.957L130.432 383.494" stroke="#602D1B" stroke-width="0.5" stroke-linecap="round"/>
<path d="M117.934 369.557L110.739 370.193C110.356 370.227 110.153 370.662 110.373 370.978L114.511 376.898" stroke="#602D1B" stroke-width="0.5" stroke-linecap="round"/>
<path d="M103.274 361.926L96.0511 361.932C95.6666 361.933 95.4264 362.349 95.6183 362.682L99.2241 368.941" stroke="#602D1B" stroke-width="0.5" stroke-linecap="round"/>
<path d="M89.3356 353.046L82.1396 352.423C81.7565 352.39 81.4809 352.784 81.6431 353.132L84.6897 359.681" stroke="#602D1B" stroke-width="0.5" stroke-linecap="round"/>
<path d="M76.2236 342.985L69.1092 341.737C68.7305 341.671 68.4217 342.039 68.5529 342.4L71.0171 349.19" stroke="#602D1B" stroke-width="0.5" stroke-linecap="round"/>
<path d="M64.0376 331.819L57.0591 329.956C56.6876 329.857 56.3478 330.196 56.447 330.568L58.3101 337.546" stroke="#602D1B" stroke-width="0.5" stroke-linecap="round"/>
<path d="M52.8726 319.634L46.0829 317.17C45.7215 317.038 45.3534 317.347 45.4199 317.726L46.6676 324.84" stroke="#602D1B" stroke-width="0.5" stroke-linecap="round"/>
<path d="M42.8109 306.522L36.2619 303.476C35.9133 303.313 35.5197 303.589 35.5529 303.972L36.1758 311.168" stroke="#602D1B" stroke-width="0.5" stroke-linecap="round"/>
<path d="M33.9307 292.582L27.6721 288.976C27.3389 288.784 26.9228 289.024 26.9225 289.409L26.9159 296.632" stroke="#602D1B" stroke-width="0.5" stroke-linecap="round"/>
<path d="M26.2982 277.922L20.3777 273.785C20.0625 273.565 19.627 273.768 19.5932 274.151L18.9571 281.345" stroke="#602D1B" stroke-width="0.5" stroke-linecap="round"/>
<path d="M19.9742 262.654L14.4368 258.016C14.1421 257.769 13.6906 257.934 13.6235 258.312L12.3627 265.424" stroke="#602D1B" stroke-width="0.5" stroke-linecap="round"/>
<path d="M15.0041 246.89L9.89202 241.788C9.61989 241.516 9.1558 241.64 9.05595 242.012L7.18011 248.987" stroke="#602D1B" stroke-width="0.5" stroke-linecap="round"/>
<path d="M11.4265 230.754L6.77857 225.225C6.53115 224.931 6.05798 225.014 5.92615 225.375L3.44953 232.161" stroke="#602D1B" stroke-width="0.5" stroke-linecap="round"/>
<path d="M9.27024 214.368L5.1219 208.455C4.90107 208.14 4.42244 208.182 4.25962 208.53L1.20107 215.074" stroke="#602D1B" stroke-width="0.5" stroke-linecap="round"/>
<path d="M8.5498 197.857L4.93259 191.605C4.74004 191.273 4.25957 191.273 4.06702 191.605L0.449803 197.857" stroke="#602D1B" stroke-width="0.5" stroke-linecap="round"/>
<path d="M9.27174 181.346L6.21319 174.803C6.05038 174.455 5.57174 174.413 5.35092 174.728L1.20257 180.64" stroke="#602D1B" stroke-width="0.5" stroke-linecap="round"/>
<path d="M11.428 164.96L8.9514 158.175C8.81956 157.814 8.3464 157.73 8.09898 158.025L3.45107 163.554" stroke="#602D1B" stroke-width="0.5" stroke-linecap="round"/>
<path d="M15.0056 148.825L13.1298 141.85C13.03 141.479 12.5659 141.354 12.2937 141.626L7.18165 146.729" stroke="#602D1B" stroke-width="0.5" stroke-linecap="round"/>
<path d="M19.975 133.06L18.7142 125.948C18.6471 125.57 18.1956 125.405 17.9009 125.652L12.3635 130.29" stroke="#602D1B" stroke-width="0.5" stroke-linecap="round"/>
<path d="M26.3005 117.791L25.6644 110.596C25.6305 110.214 25.195 110.01 24.8799 110.231L18.9594 114.368" stroke="#602D1B" stroke-width="0.5" stroke-linecap="round"/>
<path d="M33.9316 103.132L33.925 95.9085C33.9247 95.524 33.5086 95.2838 33.1754 95.4757L26.9168 99.0815" stroke="#602D1B" stroke-width="0.5" stroke-linecap="round"/>
<path d="M42.8111 89.193L43.4341 81.997C43.4672 81.6139 43.0737 81.3383 42.725 81.5005L36.176 84.5471" stroke="#602D1B" stroke-width="0.5" stroke-linecap="round"/>
<path d="M52.8726 76.0811L54.1203 68.9667C54.1867 68.588 53.8187 68.2791 53.4572 68.4103L46.6676 70.8745" stroke="#602D1B" stroke-width="0.5" stroke-linecap="round"/>
<path d="M64.0385 63.8951L65.9016 56.9165C66.0008 56.545 65.661 56.2053 65.2895 56.3044L58.311 58.1675" stroke="#602D1B" stroke-width="0.5" stroke-linecap="round"/>
<path d="M76.2236 52.73L78.6878 45.9403C78.819 45.5789 78.5102 45.2109 78.1314 45.2773L71.017 46.525" stroke="#602D1B" stroke-width="0.5" stroke-linecap="round"/>
<path d="M89.3353 42.6684L92.3818 36.1193C92.544 35.7707 92.2684 35.3771 91.8854 35.4103L84.6893 36.0332" stroke="#602D1B" stroke-width="0.5" stroke-linecap="round"/>
<path d="M103.276 33.7881L106.881 27.5295C107.073 27.1963 106.833 26.7802 106.449 26.7799L99.2257 26.7733" stroke="#602D1B" stroke-width="0.5" stroke-linecap="round"/>
<path d="M117.935 26.1556L122.073 20.2351C122.293 19.9199 122.09 19.4845 121.707 19.4506L114.512 18.8145" stroke="#602D1B" stroke-width="0.5" stroke-linecap="round"/>
<path d="M133.203 19.8316L137.841 14.2943C138.088 13.9995 137.924 13.548 137.545 13.4809L130.433 12.2201" stroke="#602D1B" stroke-width="0.5" stroke-linecap="round"/>
<path d="M148.967 14.8615L154.07 9.74944C154.341 9.47732 154.217 9.01322 153.846 8.91337L146.871 7.03754" stroke="#602D1B" stroke-width="0.5" stroke-linecap="round"/>
<path d="M165.103 11.2839L170.632 6.63599C170.927 6.38857 170.843 5.91541 170.482 5.78357L163.697 3.30695" stroke="#602D1B" stroke-width="0.5" stroke-linecap="round"/>
<path d="M181.49 9.12767L187.402 4.97932C187.717 4.7585 187.675 4.27986 187.327 4.11705L180.784 1.05849" stroke="#602D1B" stroke-width="0.5" stroke-linecap="round"/>
</svg>
