<svg width="580" height="580" viewBox="0 0 580 580" fill="none" xmlns="http://www.w3.org/2000/svg">
<path fill-rule="evenodd" clip-rule="evenodd" d="M290 580C450.163 580 580 450.163 580 290C580 129.837 450.163 0 290 0C129.837 0 0 129.837 0 290C0 450.163 129.837 580 290 580ZM290 565.5C442.154 565.5 565.5 442.154 565.5 290C565.5 137.846 442.154 14.5 290 14.5C137.846 14.5 14.5 137.846 14.5 290C14.5 442.154 137.846 565.5 290 565.5Z" fill="white"/>
<path fill-rule="evenodd" clip-rule="evenodd" d="M579.01 290C579.01 449.616 449.616 579.01 290 579.01C130.384 579.01 0.989761 449.616 0.989761 290C0.989761 130.384 130.384 0.989761 290 0.989761C449.616 0.989761 579.01 130.384 579.01 290ZM290 566.49C442.701 566.49 566.49 442.701 566.49 290C566.49 137.299 442.701 13.5102 290 13.5102C137.299 13.5102 13.5102 137.299 13.5102 290C13.5102 442.701 137.299 566.49 290 566.49ZM290 580C450.163 580 580 450.163 580 290C580 129.837 450.163 0 290 0C129.837 0 0 129.837 0 290C0 450.163 129.837 580 290 580ZM290 565.5C442.154 565.5 565.5 442.154 565.5 290C565.5 137.846 442.154 14.5 290 14.5C137.846 14.5 14.5 137.846 14.5 290C14.5 442.154 137.846 565.5 290 565.5ZM500.321 480.854C499.257 479.827 497.655 479.76 496.742 480.706C495.952 481.524 495.937 482.833 496.638 483.836L492.961 487.644C492.602 487.65 492.194 487.834 491.867 488.172C491.541 488.51 491.371 488.924 491.378 489.283L490.757 489.926L488.435 487.684L487.628 488.52L488.515 489.377L487.804 490.113L486.916 489.256L486.109 490.092L488.431 492.335L487.662 493.131L488.474 493.915L492.172 490.085C492.54 490.092 492.965 489.907 493.302 489.557C493.64 489.208 493.81 488.777 493.79 488.41L497.447 484.624C498.477 485.304 499.797 485.249 500.594 484.425C501.507 483.48 501.384 481.881 500.321 480.854ZM303.765 573.675C303.74 572.196 302.653 571.017 301.339 571.04C300.202 571.059 299.266 571.975 299.052 573.179L293.76 573.272C293.502 573.022 293.083 572.864 292.613 572.872C292.143 572.88 291.73 573.053 291.481 573.312L290.587 573.327L290.531 570.1L289.369 570.12L289.39 571.353L288.367 571.371L288.345 570.138L287.183 570.158L287.24 573.386L286.133 573.405L286.153 574.533L291.476 574.44C291.73 574.705 292.162 574.875 292.648 574.866C293.134 574.858 293.559 574.673 293.805 574.4L299.067 574.308C299.314 575.518 300.287 576.413 301.433 576.393C302.747 576.37 303.791 575.153 303.765 573.675ZM276.234 6.3246C276.26 7.8028 277.346 8.98254 278.66 8.95958C279.798 8.93972 280.733 8.02461 280.947 6.81979L286.24 6.72743C286.497 6.97711 286.916 7.1356 287.386 7.12739C287.856 7.11916 288.269 6.94616 288.518 6.68766L289.412 6.67203L289.468 9.89961L290.63 9.87933L290.609 8.64601L291.632 8.62817L291.654 9.86147L292.816 9.84118L292.76 6.6136L293.866 6.59431L293.846 5.46598L288.524 5.55886C288.269 5.29437 287.837 5.12462 287.351 5.13311C286.865 5.14159 286.44 5.32629 286.195 5.59954L280.932 5.69137C280.685 4.4815 279.712 3.58655 278.566 3.60656C277.252 3.62949 276.208 4.84639 276.234 6.3246ZM8.96059 301.339C8.98353 302.653 7.80379 303.739 6.32561 303.765C4.8474 303.791 3.6305 302.746 3.60756 301.432C3.58755 300.286 4.48249 299.314 5.69238 299.067L5.60052 293.804C5.3273 293.559 5.14259 293.133 5.1341 292.647C5.12563 292.161 5.29537 291.73 5.55988 291.475L5.46697 286.152L6.5953 286.133L6.6146 287.239L9.84218 287.183L9.86247 288.345L8.62916 288.366L8.64703 289.39L9.88032 289.368L9.9006 290.53L6.67303 290.587L6.68864 291.481C6.94717 291.729 7.12018 292.142 7.12838 292.613C7.13657 293.083 6.97808 293.501 6.72842 293.759L6.8208 299.052C8.02562 299.266 8.94073 300.201 8.96059 301.339ZM573.675 276.234C572.196 276.26 571.017 277.346 571.04 278.66C571.059 279.798 571.975 280.734 573.179 280.947L573.272 286.24C573.022 286.498 572.864 286.917 572.872 287.387C572.88 287.857 573.053 288.27 573.311 288.519L573.327 289.413L570.1 289.469L570.12 290.631L571.353 290.609L571.371 291.633L570.138 291.654L570.158 292.816L573.386 292.76L573.405 293.867L574.533 293.847L574.44 288.524C574.705 288.269 574.875 287.838 574.866 287.352C574.858 286.866 574.673 286.441 574.4 286.195L574.308 280.933C575.518 280.686 576.413 279.713 576.393 278.567C576.37 277.253 575.153 276.209 573.675 276.234ZM99.2929 496.743C100.238 497.656 100.172 499.258 99.1451 500.321C98.118 501.385 96.5192 501.507 95.5738 500.594C94.7493 499.798 94.6943 498.477 95.3752 497.447L91.589 493.791C91.2222 493.81 90.7911 493.64 90.4413 493.303C90.0916 492.965 89.9067 492.54 89.9134 492.173L86.084 488.475L86.8679 487.663L87.664 488.432L89.9064 486.11L90.7423 486.917L89.8855 487.804L90.6219 488.515L91.4788 487.628L92.3147 488.435L90.0723 490.757L90.7155 491.378C91.0742 491.372 91.4886 491.541 91.8269 491.868C92.1651 492.195 92.3491 492.603 92.3548 492.961L96.1627 496.639C97.1657 495.938 98.4743 495.952 99.2929 496.743ZM480.854 79.6778C479.827 80.7412 479.761 82.3434 480.706 83.2563C481.525 84.0468 482.833 84.0612 483.837 83.3604L487.645 87.0377C487.65 87.3964 487.834 87.8046 488.172 88.1312C488.511 88.4579 488.925 88.6276 489.284 88.6207L489.927 89.2419L487.685 91.5639L488.52 92.3712L489.377 91.4839L490.114 92.195L489.257 93.0823L490.093 93.8896L492.335 91.5675L493.131 92.3363L493.915 91.5245L490.086 87.8265C490.093 87.4592 489.908 87.0342 489.558 86.6965C489.208 86.3587 488.777 86.1888 488.41 86.2083L484.624 82.5521C485.305 81.5219 485.25 80.2013 484.425 79.4051C483.48 78.4922 481.881 78.6143 480.854 79.6778ZM83.2568 99.2934C82.3439 100.239 80.7417 100.173 79.6782 99.1455C78.6147 98.1185 78.4927 96.5196 79.4055 95.5743C80.2018 94.7498 81.5224 94.6948 82.5526 95.3757L86.2088 91.5895C86.1892 91.2227 86.3592 90.7915 86.6969 90.4418C87.0347 90.092 87.4596 89.9071 87.8269 89.9139L91.525 86.0844L92.3368 86.8683L91.5679 87.6645L93.89 89.9069L93.0828 90.7428L92.1955 89.886L91.4844 90.6224L92.3717 91.4792L91.5644 92.3152L89.2423 90.0727L88.6211 90.716C88.6281 91.0747 88.4584 91.4891 88.1317 91.8273C87.8051 92.1656 87.3969 92.3496 87.0381 92.3552L83.3609 96.1632C84.0617 97.1662 84.0473 98.4748 83.2568 99.2934ZM572.163 261.845C573.846 259.429 571.542 256.768 571.542 256.768C571.542 256.768 569.948 259.909 572.163 261.845ZM568.604 237.341C570.071 234.786 567.545 232.337 567.545 232.337C567.545 232.337 566.23 235.606 568.604 237.341ZM562.933 213.239C564.172 210.566 561.444 208.347 561.444 208.347C561.444 208.347 560.417 211.719 562.933 213.239ZM555.192 189.726C556.195 186.954 553.284 184.983 553.284 184.983C553.284 184.983 552.554 188.432 555.192 189.726ZM545.443 166.981C546.202 164.132 543.131 162.423 543.131 162.423C543.131 162.423 542.703 165.923 545.443 166.981ZM533.759 145.175C534.268 142.27 531.061 140.836 531.061 140.836C531.061 140.836 530.938 144.361 533.759 145.175ZM520.228 124.473C520.482 121.534 517.163 120.387 517.163 120.387C517.163 120.387 517.347 123.909 520.228 124.473ZM504.951 105.036C504.95 102.087 501.544 101.234 501.544 101.234C501.544 101.234 502.032 104.727 504.951 105.036ZM469.648 70.5327C469.137 67.6279 465.636 67.3827 465.636 67.3827C465.636 67.3827 466.72 70.737 469.648 70.5327ZM449.889 55.7274C449.129 52.8783 445.619 52.9406 445.619 52.9406C445.619 52.9406 446.99 56.1873 449.889 55.7274ZM428.921 42.7113C427.917 39.9396 424.426 40.309 424.426 40.309C424.426 40.309 426.074 43.4234 428.921 42.7113ZM406.905 31.581C405.664 28.9077 402.219 29.5814 402.219 29.5814C402.219 29.5814 404.13 32.5397 406.905 31.581ZM384.008 22.4167C382.54 19.8623 379.166 20.8351 379.166 20.8351C379.166 20.8351 381.327 23.6149 384.008 22.4167ZM360.402 15.2957C358.718 12.8795 355.442 14.1441 355.442 14.1441C355.442 14.1441 357.835 16.7242 360.402 15.2957ZM336.271 10.2681C334.383 8.00851 331.23 9.55521 331.23 9.55521C331.23 9.55521 333.837 11.916 336.271 10.2681ZM311.796 7.3738C309.72 5.28807 306.712 7.10512 306.712 7.10512C306.712 7.10512 309.515 9.22865 311.796 7.3738ZM572.553 309.684C574.639 307.6 572.821 304.581 572.821 304.581C572.821 304.581 570.698 307.394 572.553 309.684ZM569.662 334.254C571.921 332.36 570.374 329.194 570.374 329.194C570.374 329.194 568.014 331.811 569.662 334.254ZM564.637 358.478C567.053 356.787 565.788 353.499 565.788 353.499C565.788 353.499 563.208 355.901 564.637 358.478ZM557.519 382.174C560.073 380.7 559.1 377.314 559.1 377.314C559.1 377.314 556.32 379.482 557.519 382.174ZM548.359 405.159C551.032 403.913 550.358 400.455 550.358 400.455C550.358 400.455 547.4 402.373 548.359 405.159ZM537.23 427.259C540.002 426.251 539.632 422.747 539.632 422.747C539.632 422.747 536.518 424.401 537.23 427.259ZM524.218 448.306C527.067 447.543 527.004 444.02 527.004 444.02C527.004 444.02 523.757 445.396 524.218 448.306ZM509.415 468.14C512.319 467.628 512.564 464.113 512.564 464.113C512.564 464.113 509.21 465.201 509.415 468.14ZM474.916 503.574C477.866 503.574 478.718 500.155 478.718 500.155C478.718 500.155 475.225 500.644 474.916 503.574ZM455.481 518.907C458.42 519.163 459.567 515.832 459.567 515.832C459.567 515.832 456.045 516.015 455.481 518.907ZM434.781 532.488C437.686 532.999 439.119 529.78 439.119 529.78C439.119 529.78 435.595 529.656 434.781 532.488ZM412.976 544.215C415.825 544.977 417.534 541.895 417.534 541.895C417.534 541.895 414.034 541.465 412.976 544.215ZM390.233 553.998C393.005 555.005 394.976 552.084 394.976 552.084C394.976 552.084 391.526 551.351 390.233 553.998ZM366.72 561.767C369.393 563.011 371.612 560.272 371.612 560.272C371.612 560.272 368.239 559.242 366.72 561.767ZM342.619 567.455C345.174 568.928 347.623 566.393 347.623 566.393C347.623 566.393 344.353 565.072 342.619 567.455ZM318.115 571.025C320.531 572.715 323.192 570.402 323.192 570.402C323.192 570.402 320.05 568.802 318.115 571.025ZM270.197 572.527C272.289 574.621 275.32 572.796 275.32 572.796C275.32 572.796 272.496 570.665 270.197 572.527ZM245.532 569.625C247.434 571.893 250.612 570.34 250.612 570.34C250.612 570.34 247.984 567.97 245.532 569.625ZM221.215 564.579C222.912 567.005 226.214 565.735 226.214 565.735C226.214 565.735 223.802 563.145 221.215 564.579ZM197.427 557.433C198.906 559.997 202.305 559.02 202.305 559.02C202.305 559.02 200.129 556.229 197.427 557.433ZM174.354 548.235C175.605 550.919 179.076 550.242 179.076 550.242C179.076 550.242 177.151 547.272 174.354 548.235ZM152.168 537.062C153.18 539.845 156.698 539.473 156.698 539.473C156.698 539.473 155.038 536.346 152.168 537.062ZM131.04 523.995C131.807 526.856 135.343 526.793 135.343 526.793C135.343 526.793 133.962 523.533 131.04 523.995ZM111.13 509.133C111.644 512.05 115.172 512.296 115.172 512.296C115.172 512.296 114.08 508.928 111.13 509.133ZM75.5564 474.494C75.557 477.456 78.9891 478.311 78.9891 478.311C78.9891 478.311 78.4978 474.805 75.5564 474.494ZM60.1654 454.981C59.9081 457.932 63.2527 459.083 63.2527 459.083C63.2527 459.083 63.0685 455.547 60.1654 454.981ZM46.5319 434.196C46.0189 437.113 49.2505 438.552 49.2505 438.552C49.2505 438.552 49.3748 435.013 46.5319 434.196ZM34.7593 412.303C33.9943 415.164 37.0884 416.88 37.0884 416.88C37.0884 416.88 37.5202 413.365 34.7593 412.303ZM24.9379 389.468C23.9267 392.251 26.8597 394.23 26.8597 394.23C26.8597 394.23 27.5959 390.767 24.9379 389.468ZM17.1393 365.86C15.8896 368.544 18.6393 370.772 18.6393 370.772C18.6393 370.772 19.674 367.386 17.1393 365.86ZM11.4277 341.661C9.94919 344.226 12.4945 346.685 12.4945 346.685C12.4945 346.685 13.82 343.403 11.4277 341.661ZM7.84573 317.058C6.14953 319.484 8.47102 322.156 8.47102 322.156C8.47102 322.156 10.0773 319.002 7.84573 317.058ZM7.37397 268.204C5.28825 270.281 7.10532 273.288 7.10532 273.288C7.10532 273.288 9.2288 270.485 7.37397 268.204ZM10.2683 243.729C8.00868 245.616 9.55542 248.77 9.55542 248.77C9.55542 248.77 11.9162 246.162 10.2683 243.729ZM15.2969 219.598C12.8807 221.283 14.1453 224.558 14.1453 224.558C14.1453 224.558 16.7254 222.165 15.2969 219.598ZM22.4174 195.993C19.8629 197.461 20.8358 200.834 20.8358 200.834C20.8358 200.834 23.6156 198.674 22.4174 195.993ZM31.5807 173.096C28.9074 174.337 29.5811 177.782 29.5811 177.782C29.5811 177.782 32.5395 175.871 31.5807 173.096ZM42.7115 151.078C39.9398 152.083 40.3092 155.573 40.3092 155.573C40.3092 155.573 43.4236 153.926 42.7115 151.078ZM55.728 130.111C52.8789 130.872 52.9412 134.381 52.9412 134.381C52.9412 134.381 56.188 133.01 55.728 130.111ZM70.5329 110.352C67.6281 110.862 67.3829 114.364 67.3829 114.364C67.3829 114.364 70.7372 113.279 70.5329 110.352ZM105.036 75.049C102.087 75.0499 101.234 78.4558 101.234 78.4558C101.234 78.4558 104.727 77.9678 105.036 75.049ZM124.472 59.7721C121.534 59.5172 120.386 62.8363 120.386 62.8363C120.386 62.8363 123.908 62.653 124.472 59.7721ZM145.175 46.2413C142.27 45.7325 140.836 48.9395 140.836 48.9395C140.836 48.9395 144.36 49.0624 145.175 46.2413ZM166.981 34.5568C164.132 33.798 162.423 36.8686 162.423 36.8686C162.423 36.8686 165.923 37.2966 166.981 34.5568ZM189.726 24.8078C186.955 23.8047 184.983 26.7154 184.983 26.7154C184.983 26.7154 188.432 27.4454 189.726 24.8078ZM213.239 17.0668C210.566 15.8272 208.347 18.5559 208.347 18.5559C208.347 18.5559 211.719 19.5823 213.239 17.0668ZM237.341 11.3962C234.787 9.9294 232.337 12.4554 232.337 12.4554C232.337 12.4554 235.606 13.7703 237.341 11.3962ZM261.845 7.83737C259.429 6.15451 256.768 8.45852 256.768 8.45852C256.768 8.45852 259.909 10.0521 261.845 7.83737Z" fill="black"/>
</svg>
