<svg width="22" height="14" viewBox="0 0 22 14" fill="none" xmlns="http://www.w3.org/2000/svg">
<path fill-rule="evenodd" clip-rule="evenodd" d="M21.5004 6.99997C21.5004 6.80106 21.4213 6.61029 21.2807 6.46964C21.14 6.32899 20.9493 6.24997 20.7504 6.24997H3.06086L7.78136 1.53097C7.8511 1.46124 7.90641 1.37846 7.94415 1.28735C7.98189 1.19624 8.00131 1.09859 8.00131 0.999971C8.00131 0.901355 7.98189 0.803705 7.94415 0.712596C7.90641 0.621487 7.8511 0.538703 7.78136 0.468971C7.71163 0.399239 7.62885 0.343925 7.53774 0.306186C7.44663 0.268447 7.34898 0.249023 7.25036 0.249023C7.15175 0.249023 7.0541 0.268447 6.96299 0.306186C6.87188 0.343925 6.7891 0.399239 6.71936 0.468971L0.719364 6.46897C0.649519 6.53864 0.594105 6.6214 0.556295 6.71252C0.518486 6.80364 0.499023 6.90132 0.499023 6.99997C0.499023 7.09862 0.518486 7.1963 0.556295 7.28742C0.594105 7.37854 0.649519 7.4613 0.719364 7.53097L6.71936 13.531C6.7891 13.6007 6.87188 13.656 6.96299 13.6938C7.0541 13.7315 7.15175 13.7509 7.25036 13.7509C7.34898 13.7509 7.44663 13.7315 7.53774 13.6938C7.62885 13.656 7.71163 13.6007 7.78136 13.531C7.8511 13.4612 7.90641 13.3785 7.94415 13.2873C7.98189 13.1962 8.00131 13.0986 8.00131 13C8.00131 12.9014 7.98189 12.8037 7.94415 12.7126C7.90641 12.6215 7.8511 12.5387 7.78136 12.469L3.06086 7.74997H20.7504C20.9493 7.74997 21.14 7.67095 21.2807 7.5303C21.4213 7.38965 21.5004 7.19888 21.5004 6.99997Z" fill="black"/>
</svg>
