<svg width="35" height="56" viewBox="0 0 35 56" fill="none" xmlns="http://www.w3.org/2000/svg">
<path d="M34.366 32.4688C34.1735 32.2378 33.9085 32.0786 33.6141 32.0171C33.3197 31.9556 33.0132 31.9954 32.7442 32.1301L17.3377 39.8334L1.9311 32.1301C1.66242 31.9954 1.35614 31.9555 1.06192 32.0167C0.767705 32.078 0.502792 32.2368 0.310129 32.4674C0.117465 32.6981 0.0083456 32.987 0.000459538 33.2874C-0.00742653 33.5879 0.0863832 33.8821 0.266681 34.1226L16.2707 55.4613C16.2867 55.4826 16.3134 55.4907 16.3321 55.512C16.4211 55.6171 16.5265 55.7072 16.6442 55.7787C16.6863 55.8114 16.7309 55.8408 16.7775 55.8667C16.9512 55.9544 17.1431 56.0001 17.3377 56.0001C17.5322 56.0001 17.7241 55.9544 17.8978 55.8667C17.9444 55.8408 17.989 55.8114 18.0312 55.7787C18.1489 55.7072 18.2543 55.6171 18.3433 55.512C18.3619 55.4907 18.3886 55.4826 18.4046 55.4613L34.4087 34.1226C34.5887 33.8823 34.6825 33.5884 34.6747 33.2883C34.667 32.9882 34.5582 32.6994 34.366 32.4688ZM16.004 42.1486V50.6601L5.79075 37.0566L16.004 42.1486ZM18.6713 50.6601V42.1486L28.8846 37.0566L18.6713 50.6601Z" fill="#FCFCFC"/>
<path d="M0.0373426 28.1422C0.0360363 28.2155 0.0413931 28.2887 0.0533468 28.361C0.0666835 28.4037 0.0986923 28.4357 0.114696 28.4757C0.12106 28.5127 0.129972 28.5492 0.141369 28.585C0.157373 28.6197 0.197383 28.633 0.216054 28.665C0.305398 28.813 0.423267 28.9418 0.562809 29.0438C0.608154 29.0758 0.640162 29.1132 0.685507 29.1398C0.730852 29.1665 0.717515 29.1718 0.736187 29.1798L16.7402 37.1819H16.7776C16.9518 37.2678 17.1435 37.3124 17.3377 37.3124C17.532 37.3124 17.7236 37.2678 17.8979 37.1819H17.9352L33.9393 29.1798C33.9784 29.1528 34.0158 29.1234 34.0513 29.0918C34.1347 29.0396 34.2117 28.9779 34.2807 28.9078C34.3397 28.8475 34.3924 28.7813 34.4381 28.7104C34.4724 28.6704 34.5044 28.6286 34.5341 28.585C34.5528 28.545 34.5501 28.505 34.5661 28.4677C34.5868 28.4332 34.6055 28.3976 34.6221 28.361C34.6261 28.313 34.6261 28.2649 34.6221 28.2169C34.641 28.1249 34.6482 28.0307 34.6434 27.9369C34.6405 27.8588 34.6307 27.7812 34.6141 27.7048C34.5922 27.6126 34.56 27.5231 34.5181 27.4381C34.5067 27.3954 34.4924 27.3535 34.4754 27.3127L18.4713 0.639282C18.4527 0.609941 18.418 0.599272 18.3993 0.572598C18.2825 0.396532 18.124 0.252105 17.9378 0.152195C17.7517 0.0522859 17.5437 0 17.3324 0C17.1211 0 16.9131 0.0522859 16.727 0.152195C16.5408 0.252105 16.3822 0.396532 16.2655 0.572598C16.2468 0.599272 16.2121 0.609941 16.1934 0.639282L0.189382 27.3127C0.0829434 27.502 0.0243423 27.7144 0.0186713 27.9315C0.0186713 27.9555 0 27.9742 0 27.9982C0.00940924 28.047 0.0218814 28.0951 0.0373426 28.1422ZM16.0041 33.8317L4.31576 27.9875L16.0041 22.1434V33.8317ZM18.6714 22.1434L30.3597 27.9875L18.6714 33.8317V22.1434ZM18.6714 19.1613V6.12867L29.8396 24.7441L18.6714 19.1613ZM16.0041 19.1613L4.83322 24.7467L16.0041 6.12867V19.1613Z" fill="#FCFCFC"/>
</svg>
