<svg width="107" height="107" viewBox="0 0 107 107" fill="none" xmlns="http://www.w3.org/2000/svg">
<path d="M16.8281 68.0331C21.1322 71.4378 31.4618 76.2045 38.3483 68.0331C35.7863 63.9694 27.8956 58.2802 16.8281 68.0331Z" fill="#718969" stroke="black" stroke-width="0.5" stroke-linejoin="round"/>
<path d="M17.8082 46.9666C20.3896 51.8007 27.9496 60.281 37.5379 55.5297C36.8178 50.7846 31.8636 42.4289 17.8082 46.9666Z" fill="#718969" stroke="black" stroke-width="0.5" stroke-linejoin="round"/>
<path d="M27.4452 27.7327C28.13 33.1659 32.1641 43.7727 42.8219 42.7347C43.8445 38.0451 42.2009 28.4793 27.4452 27.7327Z" fill="#718969" stroke="black" stroke-width="0.5" stroke-linejoin="round"/>
<path d="M51.9745 20.9404C48.795 25.4067 44.5761 35.9419 53.1366 42.3525C57.0706 39.584 62.3458 31.4257 51.9745 20.9404Z" fill="#718969" stroke="black" stroke-width="0.5" stroke-linejoin="round"/>
<path d="M27.5645 84.6235C32.952 85.7037 44.327 85.2644 46.7274 74.8656C42.5903 72.4087 32.9657 70.9205 27.5645 84.6235Z" fill="#718969" stroke="black" stroke-width="0.5" stroke-linejoin="round"/>
<path d="M90.1719 68.0331C85.8678 71.4378 75.5382 76.2045 68.6517 68.0331C71.2137 63.9694 79.1044 58.2802 90.1719 68.0331Z" fill="#718969" stroke="black" stroke-width="0.5" stroke-linejoin="round"/>
<path d="M89.1918 46.9666C86.6104 51.8007 79.0504 60.281 69.4621 55.5297C70.1822 50.7846 75.1364 42.4289 89.1918 46.9666Z" fill="#718969" stroke="black" stroke-width="0.5" stroke-linejoin="round"/>
<path d="M79.5548 27.7327C78.87 33.1659 74.8359 43.7727 64.1781 42.7347C63.1555 38.0451 64.7991 28.4793 79.5548 27.7327Z" fill="#718969" stroke="black" stroke-width="0.5" stroke-linejoin="round"/>
<path d="M79.4355 84.6235C74.048 85.7037 62.673 85.2644 60.2726 74.8656C64.4097 72.4087 74.0343 70.9205 79.4355 84.6235Z" fill="#718969" stroke="black" stroke-width="0.5" stroke-linejoin="round"/>
<path d="M39.9705 47.6467C37.0267 37.7663 44.0429 32.9959 38.6022 20.5894C41.4825 18.9304 51.5971 29.9568 51.6259 37.497C51.6507 43.9632 42.5624 46.4933 39.9705 47.6467Z" fill="#C46041" stroke="#602D1B" stroke-width="0.5" stroke-linejoin="round"/>
<path d="M37.658 62.0598C33.1759 54.3796 38.0797 48.9621 30.9904 39.6717C33.0647 37.6984 43.7875 44.8857 45.3503 51.1961C46.6906 56.6077 39.5939 60.5685 37.658 62.0598Z" fill="#C46041" stroke="#602D1B" stroke-width="0.5" stroke-linejoin="round"/>
<path d="M41.593 71.8671C33.3616 68.4528 33.9778 61.1831 22.6928 58.0579C23.1466 55.2364 36.0484 54.4967 41.1237 58.5798C45.4761 62.0813 42.2293 69.5128 41.593 71.8671Z" fill="#C46041" stroke="#602D1B" stroke-width="0.5" stroke-linejoin="round"/>
<path d="M65.9904 47.6467C68.9342 37.7663 61.9181 32.9959 67.3587 20.5894C64.4784 18.9304 54.3639 29.9568 54.335 37.497C54.3102 43.9632 63.3985 46.4933 65.9904 47.6467Z" fill="#C46041" stroke="#602D1B" stroke-width="0.5" stroke-linejoin="round"/>
<path d="M68.303 62.0598C72.7851 54.3796 67.8813 48.9621 74.9705 39.6717C72.8963 37.6984 62.1735 44.8857 60.6106 51.1961C59.2703 56.6077 66.3671 60.5685 68.303 62.0598Z" fill="#C46041" stroke="#602D1B" stroke-width="0.5" stroke-linejoin="round"/>
<path d="M64.3679 71.8671C72.5994 68.4528 71.9832 61.1831 83.2682 58.0579C82.8143 55.2364 69.9126 54.4967 64.8372 58.5798C60.4848 62.0813 63.7317 69.5128 64.3679 71.8671Z" fill="#C46041" stroke="#602D1B" stroke-width="0.5" stroke-linejoin="round"/>
<path d="M68.7225 56.9383C68.7225 66.8625 61.9407 74.8327 53.6601 74.8327C45.3794 74.8327 38.5977 66.8625 38.5977 56.9383C38.5977 47.0141 45.3794 39.0439 53.6601 39.0439C61.9407 39.0439 68.7225 47.0141 68.7225 56.9383Z" fill="#FFF8E7" stroke="black" stroke-width="0.5"/>
<path d="M63.7545 62.7115C63.7545 69.4397 59.0174 74.8326 53.2444 74.8326C47.4715 74.8326 42.7344 69.4397 42.7344 62.7115C42.7344 55.9833 47.4715 50.5903 53.2444 50.5903C59.0174 50.5903 63.7545 55.9833 63.7545 62.7115Z" stroke="black" stroke-width="0.5"/>
<ellipse cx="53.2474" cy="66.8353" rx="4.96619" ry="8.24743" fill="#3A4682"/>
<path d="M54.1491 75.0483C62.234 78.7941 67.2002 73.4332 77.1326 79.6188C78.9151 77.3804 70.7526 67.3972 64.3032 66.4229C58.7725 65.5874 55.4626 72.9912 54.1491 75.0483Z" fill="#C46041" stroke="#602D1B" stroke-width="0.5" stroke-linejoin="round"/>
<path d="M52.1958 74.4588C55.7824 73.0843 65.853 70.3351 62.956 88.0671C60.8867 82.2939 54.8444 74.4588 52.1958 74.4588Z" fill="#C46041" stroke="#602D1B" stroke-width="0.5" stroke-linejoin="round"/>
<path d="M51.8119 75.0483C43.7269 78.7941 38.7607 73.4332 28.8284 79.6188C27.0458 77.3803 35.2083 67.3972 41.6577 66.4229C47.1884 65.5874 50.4984 72.9912 51.8119 75.0483Z" fill="#C46041" stroke="#602D1B" stroke-width="0.5" stroke-linejoin="round"/>
<path d="M53.7613 74.4588C50.1746 73.0843 40.104 70.3351 43.0011 88.0671C45.0703 82.2939 51.1126 74.4588 53.7613 74.4588Z" fill="#C46041" stroke="#602D1B" stroke-width="0.5" stroke-linejoin="round"/>
</svg>
