<svg width="107" height="107" viewBox="0 0 107 107" fill="none" xmlns="http://www.w3.org/2000/svg">
<path d="M47.8436 23.7431C44.6098 29.1543 41.0786 41.2835 52.8241 46.51C57.2798 42.7758 62.5216 32.9944 47.8436 23.7431Z" fill="#76AD6D" stroke="black" stroke-width="0.5" stroke-linejoin="round"/>
<path d="M85.1075 40.4747C78.6777 39.6695 65.6884 41.1713 65.1697 53.6199C70.4582 56.1539 81.8496 57.0725 85.1075 40.4747Z" fill="#76AD6D" stroke="black" stroke-width="0.5" stroke-linejoin="round"/>
<path d="M81.2919 81.4665C80.1695 75.3177 74.8012 63.8303 62.3077 67.0719C61.3757 72.6884 63.8678 83.4305 81.2919 81.4665Z" fill="#76AD6D" stroke="black" stroke-width="0.5" stroke-linejoin="round"/>
<path d="M36.7123 84.0719C43.0709 82.8501 54.8748 77.4185 51.2218 65.4667C45.3688 64.6987 34.2726 67.3445 36.7123 84.0719Z" fill="#76AD6D" stroke="black" stroke-width="0.5" stroke-linejoin="round"/>
<path d="M20.3833 49.129C23.563 54.57 32.5889 63.6886 43.2551 56.6358C42.1969 51.0401 36.1411 41.7047 20.3833 49.129Z" fill="#76AD6D" stroke="black" stroke-width="0.5" stroke-linejoin="round"/>
<path d="M48.4976 55.3554C26.7682 41.8253 58.6467 27.5436 54.7433 50.8454C60.2082 31.3019 87.5316 48.5904 60.9886 56.1071C84.4089 52.3488 71.9182 83.919 58.6467 62.8722C68.0149 80.9123 31.3236 78.6573 50.8397 62.1205C25.0777 78.6573 32.0392 45.1077 48.4976 55.3554Z" fill="#C8A2AF" stroke="#955879" stroke-width="0.5" stroke-linejoin="round"/>
<ellipse cx="54.8084" cy="57.3349" rx="5.46467" ry="5.26171" fill="#43308C"/>
</svg>
