<svg width="648" height="648" viewBox="0 0 648 648" fill="none" xmlns="http://www.w3.org/2000/svg">
<path fill-rule="evenodd" clip-rule="evenodd" d="M324 632C494.104 632 632 494.104 632 324C632 153.896 494.104 16 324 16C153.896 16 16 153.896 16 324C16 494.104 153.896 632 324 632ZM324 648C502.94 648 648 502.94 648 324C648 145.06 502.94 0 324 0C145.06 0 0 145.06 0 324C0 502.94 145.06 648 324 648Z" fill="white"/>
<path fill-rule="evenodd" clip-rule="evenodd" d="M647 324C647 145.612 502.388 1 324 1C145.612 1 1 145.612 1 324C1 502.388 145.612 647 324 647C502.388 647 647 502.388 647 324ZM324 15.2C494.546 15.2 632.8 153.454 632.8 324C632.8 494.546 494.546 632.8 324 632.8C153.454 632.8 15.2 494.546 15.2 324C15.2 153.454 153.454 15.2 324 15.2ZM324 0C502.94 0 648 145.06 648 324C648 502.94 502.94 648 324 648C145.06 648 0 502.94 0 324C0 145.06 145.06 0 324 0ZM324 16.2C493.993 16.2 631.8 154.007 631.8 324C631.8 493.993 493.993 631.8 324 631.8C154.007 631.8 16.2 493.993 16.2 324C16.2 154.007 154.007 16.2 324 16.2ZM30.2619 444.003C31.7709 443.331 33.4783 443.874 34.0755 445.215C34.5926 446.377 34.1077 447.756 32.9886 448.541L35.3942 453.944C35.7686 454.087 36.1268 454.436 36.3405 454.916C36.5542 455.396 36.5741 455.896 36.4298 456.27L36.8361 457.183L40.1308 455.716L40.6589 456.902L39.3999 457.462L39.8652 458.507L41.1241 457.947L41.6522 459.133L38.3575 460.6L38.8604 461.729L37.7086 462.242L35.2894 456.809C34.9012 456.675 34.5257 456.319 34.3048 455.823C34.0839 455.326 34.0702 454.809 34.2309 454.431L31.8391 449.059C30.4974 449.38 29.1319 448.818 28.6111 447.648C28.0138 446.307 28.753 444.675 30.2619 444.003ZM201.151 616.56C201.743 615.018 203.334 614.194 204.705 614.72C205.892 615.176 206.524 616.494 206.288 617.841L211.81 619.96C212.176 619.796 212.676 619.79 213.166 619.978C213.657 620.167 214.024 620.506 214.187 620.872L215.119 621.231L216.412 617.864L217.624 618.329L217.13 619.615L218.198 620.025L218.692 618.739L219.904 619.204L218.611 622.571L219.766 623.014L219.314 624.191L213.761 622.06C213.392 622.24 212.875 622.253 212.368 622.059C211.861 621.864 211.485 621.508 211.332 621.127L205.842 619.02C205.12 620.195 203.757 620.763 202.561 620.304C201.191 619.778 200.559 618.102 201.151 616.56ZM446.849 31.4398C446.257 32.9818 444.666 33.8054 443.296 33.2792C442.109 32.8235 441.476 31.5052 441.712 30.1588L436.191 28.0393C435.825 28.2029 435.325 28.2093 434.834 28.0211C434.344 27.8328 433.976 27.4933 433.814 27.1269L432.881 26.7689L431.589 30.1359L430.377 29.6705L430.871 28.384L429.803 27.9741L429.309 29.2607L428.097 28.7953L429.389 25.4284L428.235 24.9853L428.687 23.8082L434.239 25.9397C434.608 25.7595 435.126 25.746 435.633 25.9407C436.14 26.1353 436.516 26.4916 436.669 26.8723L442.159 28.9797C442.881 27.8038 444.244 27.236 445.439 27.6949C446.81 28.2211 447.441 29.8977 446.849 31.4398ZM614.721 443.295C614.195 444.666 615.018 446.257 616.56 446.849C618.102 447.441 619.779 446.809 620.305 445.439C620.764 444.243 620.196 442.88 619.02 442.158L621.128 436.668C621.508 436.515 621.865 436.139 622.059 435.632C622.254 435.125 622.241 434.608 622.06 434.239L624.192 428.686L623.015 428.234L622.572 429.389L619.205 428.096L618.739 429.308L620.026 429.802L619.616 430.87L618.329 430.376L617.864 431.588L621.231 432.881L620.873 433.813C620.507 433.976 620.167 434.343 619.979 434.834C619.791 435.324 619.797 435.824 619.961 436.19L617.841 441.712C616.495 441.476 615.176 442.108 614.721 443.295ZM31.4394 201.151C32.9815 201.743 33.805 203.334 33.2788 204.704C32.8232 205.891 31.505 206.524 30.1585 206.288L28.0389 211.809C28.2026 212.175 28.209 212.675 28.0207 213.166C27.8325 213.656 27.493 214.024 27.1265 214.186L26.7685 215.119L30.1355 216.411L29.6702 217.623L28.3837 217.129L27.9738 218.197L29.2604 218.691L28.795 219.903L25.4281 218.611L24.985 219.765L23.8079 219.313L25.9394 213.761C25.7591 213.392 25.7457 212.874 25.9403 212.367C26.135 211.86 26.4913 211.484 26.872 211.331L28.9794 205.841C27.8035 205.119 27.2357 203.756 27.6946 202.561C28.2208 201.19 29.8974 200.559 31.4394 201.151ZM445.216 613.925C443.874 614.522 443.332 616.23 444.004 617.739C444.675 619.247 446.307 619.987 447.649 619.389C448.819 618.869 449.381 617.503 449.06 616.161L454.432 613.77C454.809 613.93 455.327 613.917 455.823 613.696C456.32 613.475 456.676 613.099 456.809 612.711L462.243 610.292L461.73 609.14L460.6 609.643L459.133 606.348L457.947 606.876L458.508 608.135L457.463 608.601L456.902 607.342L455.716 607.87L457.183 611.164L456.271 611.571C455.897 611.426 455.397 611.446 454.917 611.66C454.437 611.874 454.088 612.232 453.945 612.606L448.542 615.012C447.757 613.893 446.377 613.408 445.216 613.925ZM203.997 30.2614C204.669 31.7703 204.126 33.4776 202.785 34.0748C201.623 34.5919 200.244 34.1071 199.459 32.988L194.056 35.3936C193.913 35.768 193.564 36.1263 193.084 36.3399C192.604 36.5536 192.104 36.5734 191.73 36.4291L190.817 36.8355L192.284 40.1302L191.098 40.6583L190.538 39.3993L189.493 39.8645L190.053 41.1235L188.867 41.6516L187.4 38.3569L186.271 38.8597L185.758 37.7079L191.191 35.2888C191.325 34.9006 191.681 34.5251 192.177 34.3042C192.674 34.0833 193.191 34.0695 193.569 34.2302L198.941 31.8384C198.62 30.4968 199.182 29.1313 200.352 28.6104C201.693 28.0132 203.325 28.7524 203.997 30.2614ZM613.925 202.785C614.522 204.126 616.23 204.669 617.739 203.997C619.248 203.325 619.987 201.693 619.39 200.352C618.869 199.182 617.503 198.62 616.161 198.941L613.77 193.569C613.93 193.191 613.917 192.673 613.696 192.177C613.475 191.681 613.099 191.324 612.711 191.191L610.292 185.758L609.14 186.27L609.643 187.4L606.348 188.867L606.876 190.053L608.135 189.493L608.601 190.537L607.342 191.098L607.87 192.284L611.164 190.817L611.571 191.73C611.427 192.104 611.446 192.604 611.66 193.084C611.874 193.563 612.232 193.913 612.606 194.056L615.012 199.459C613.893 200.244 613.408 201.623 613.925 202.785ZM38.527 186.621C37.6835 183.442 41.1192 181.528 41.1192 181.528C41.1192 181.528 41.5919 185.435 38.527 186.621ZM51.6275 162.255C51.0636 159.013 54.6515 157.407 54.6515 157.407C54.6515 157.407 54.7828 161.342 51.6275 162.255ZM66.7902 139.118C66.5101 135.838 70.2228 134.551 70.2228 134.551C70.2228 134.551 70.0119 138.484 66.7902 139.118ZM83.9019 117.391C83.9079 114.098 87.7171 113.14 87.7171 113.14C87.7171 113.14 87.1656 117.04 83.9019 117.391ZM102.828 97.2377C103.12 93.9565 106.997 93.3355 106.997 93.3355C106.997 93.3355 106.109 97.1736 102.828 97.2377ZM123.428 78.8089C124.003 75.5648 127.918 75.285 127.918 75.285C127.918 75.285 126.701 79.032 123.428 78.8089ZM145.544 62.2443C146.399 59.062 150.322 59.1256 150.322 59.1256C150.322 59.1256 148.784 62.7529 145.544 62.2443ZM169.009 47.6765C170.138 44.5801 174.039 44.9866 174.039 44.9866C174.039 44.9866 172.192 48.4666 169.009 47.6765ZM219.258 24.9421C220.904 22.0876 224.674 23.168 224.674 23.168C224.674 23.168 222.254 26.2754 219.258 24.9421ZM245.659 16.949C247.547 14.2485 251.207 15.6548 251.207 15.6548C251.207 15.6548 248.527 18.5396 245.659 16.949ZM272.646 11.2958C274.76 8.76978 278.283 10.4913 278.283 10.4913C278.283 10.4913 275.364 13.1316 272.646 11.2958ZM300.013 8.02289C302.338 5.69067 305.697 7.71423 305.697 7.71423C305.697 7.71423 302.56 10.0899 300.013 8.02289ZM327.554 7.15216C330.072 5.03149 333.242 7.34174 333.242 7.34174C333.242 7.34174 329.911 9.43475 327.554 7.15216ZM355.058 8.69641C357.75 6.80334 360.706 9.38275 360.706 9.38275C360.706 9.38275 357.207 11.1771 355.058 8.69641ZM382.314 12.6385C385.159 10.9875 387.879 13.8164 387.879 13.8164C387.879 13.8164 384.239 15.2985 382.314 12.6385ZM409.116 18.9527C412.092 17.5563 414.555 20.6132 414.555 20.6132C414.555 20.6132 410.802 21.7717 409.116 18.9527ZM19.8375 236.697C18.4444 233.713 21.5062 231.237 21.5062 231.237C21.5062 231.237 22.6603 235.002 19.8375 236.697ZM13.4839 263.597C11.8359 260.744 14.6699 258.012 14.6699 258.012C14.6699 258.012 16.1479 261.662 13.4839 263.597ZM9.50288 290.948C7.6124 288.25 10.1972 285.281 10.1972 285.281C10.1972 285.281 11.9878 288.789 9.50288 290.948ZM7.92066 318.545C5.80222 316.022 8.11803 312.839 8.11803 312.839C8.11803 312.839 10.2076 316.177 7.92066 318.545ZM8.75484 346.177C6.42448 343.847 8.45369 340.474 8.45369 340.474C8.45369 340.474 10.8264 343.618 8.75484 346.177ZM11.9927 373.632C9.46816 371.514 11.1954 367.977 11.1954 367.977C11.1954 367.977 13.8331 370.903 11.9927 373.632ZM17.6119 400.7C14.9124 398.81 16.3244 395.136 16.3244 395.136C16.3244 395.136 19.2071 397.821 17.6119 400.7ZM25.5744 427.179C22.7205 425.532 23.8066 421.748 23.8066 421.748C23.8066 421.748 26.9124 424.172 25.5744 427.179ZM48.2536 477.564C45.1572 476.436 45.5692 472.521 45.5692 472.521C45.5692 472.521 49.0486 474.369 48.2536 477.564ZM62.7972 501.088C59.6143 500.234 59.6832 496.298 59.6832 496.298C59.6832 496.298 63.3104 497.836 62.7972 501.088ZM79.3403 523.256C76.0952 522.682 75.8206 518.755 75.8206 518.755C75.8206 518.755 79.5679 519.971 79.3403 523.256ZM97.7516 543.899C94.4691 543.61 93.8529 539.722 93.8529 539.722C93.8529 539.722 97.6919 540.607 97.7516 543.899ZM117.891 562.861C114.596 562.86 113.643 559.039 113.643 559.039C113.643 559.039 117.544 559.587 117.891 562.861ZM139.608 580.001C136.326 580.286 135.043 576.563 135.043 576.563C135.043 576.563 138.977 576.77 139.608 580.001ZM162.736 595.183C159.491 595.753 157.889 592.156 157.889 592.156C157.889 592.156 161.826 592.019 162.736 595.183ZM187.098 608.294C183.915 609.145 182.006 605.7 182.006 605.7C182.006 605.7 185.915 605.22 187.098 608.294ZM236.833 628.183C233.836 629.582 231.352 626.508 231.352 626.508C231.352 626.508 235.131 625.349 236.833 628.183ZM263.836 634.56C260.972 636.215 258.229 633.37 258.229 633.37C258.229 633.37 261.893 631.886 263.836 634.56ZM291.294 638.555C288.585 640.454 285.605 637.859 285.605 637.859C285.605 637.859 289.126 636.061 291.294 638.555ZM318.999 640.142C316.465 642.269 313.27 639.944 313.27 639.944C313.27 639.944 316.622 637.846 318.999 640.142ZM346.737 639.302C344.399 641.642 341.013 639.605 341.013 639.605C341.013 639.605 344.169 637.222 346.737 639.302ZM374.299 636.05C372.173 638.584 368.622 636.85 368.622 636.85C368.622 636.85 371.56 634.202 374.299 636.05ZM401.474 630.405C399.576 633.116 395.888 631.698 395.888 631.698C395.888 631.698 398.583 628.804 401.474 630.405ZM428.056 622.41C426.402 625.275 422.604 624.185 422.604 624.185C422.604 624.185 425.037 621.067 428.056 622.41ZM478.638 599.636C477.505 602.745 473.575 602.332 473.575 602.332C473.575 602.332 475.431 598.838 478.638 599.636ZM502.254 585.032C501.397 588.228 497.445 588.159 497.445 588.159C497.445 588.159 498.99 584.517 502.254 585.032ZM524.509 568.42C523.933 571.678 519.99 571.954 519.99 571.954C519.99 571.954 521.212 568.192 524.509 568.42ZM545.234 549.934C544.944 553.23 541.04 553.849 541.04 553.849C541.04 553.849 541.93 549.994 545.234 549.934ZM564.271 529.713C564.269 533.021 560.434 533.978 560.434 533.978C560.434 533.978 560.984 530.061 564.271 529.713ZM581.479 507.908C581.765 511.204 578.027 512.491 578.027 512.491C578.027 512.491 578.235 508.542 581.479 507.908ZM596.721 484.685C597.294 487.943 593.682 489.552 593.682 489.552C593.682 489.552 593.544 485.599 596.721 484.685ZM609.885 460.224C610.739 463.42 607.281 465.337 607.281 465.337C607.281 465.337 606.8 461.412 609.885 460.224ZM629.049 409.114C630.445 412.091 627.388 414.554 627.388 414.554C627.388 414.554 626.23 410.8 629.049 409.114ZM635.362 382.312C637.013 385.157 634.184 387.877 634.184 387.877C634.184 387.877 632.702 384.237 635.362 382.312ZM639.304 355.057C641.197 357.748 638.618 360.704 638.618 360.704C638.618 360.704 636.824 357.206 639.304 355.057ZM640.849 327.553C642.969 330.071 640.659 333.241 640.659 333.241C640.659 333.241 638.566 329.91 640.849 327.553ZM639.977 300.013C642.31 302.338 640.286 305.697 640.286 305.697C640.286 305.697 637.91 302.56 639.977 300.013ZM636.704 272.645C639.23 274.759 637.509 278.282 637.509 278.282C637.509 278.282 634.869 275.363 636.704 272.645ZM631.051 245.659C633.752 247.546 632.345 251.206 632.345 251.206C632.345 251.206 629.461 248.527 631.051 245.659ZM623.059 219.257C625.913 220.903 624.833 224.672 624.833 224.672C624.833 224.672 621.725 222.252 623.059 219.257ZM600.325 169.009C603.421 170.137 603.015 174.039 603.015 174.039C603.015 174.039 599.535 172.192 600.325 169.009ZM585.756 145.544C588.938 146.399 588.875 150.322 588.875 150.322C588.875 150.322 585.247 148.784 585.756 145.544ZM569.192 123.427C572.436 124.003 572.716 127.917 572.716 127.917C572.716 127.917 568.969 126.7 569.192 123.427ZM550.764 102.828C554.045 103.12 554.666 106.996 554.666 106.996C554.666 106.996 550.828 106.108 550.764 102.828ZM530.61 83.9015C533.903 83.9075 534.86 87.7167 534.86 87.7167C534.86 87.7167 530.961 87.1652 530.61 83.9015ZM508.882 66.7892C512.162 66.5092 513.449 70.2219 513.449 70.2219C513.449 70.2219 509.517 70.011 508.882 66.7892ZM485.745 51.6266C488.988 51.0627 490.594 54.6506 490.594 54.6506C490.594 54.6506 486.659 54.7819 485.745 51.6266ZM461.378 38.5261C464.558 37.6826 466.471 41.1183 466.471 41.1183C466.471 41.1183 462.564 41.5909 461.378 38.5261Z" fill="black"/>
</svg>
