<svg width="107" height="107" viewBox="0 0 108 107" fill="none" xmlns="http://www.w3.org/2000/svg">
<path fill-rule="evenodd" clip-rule="evenodd" d="M55.4216 24.2081C57.0034 25.6475 59.5704 27.9833 60.8562 30.1272C61.3516 30.9531 63.4461 32.1049 64.408 32.1514C66.0188 32.2292 68.0067 33.13 69.9793 35.8005C70.4563 36.4462 69.9108 37.4707 69.2351 37.9043C67.6892 38.8965 66.0447 41.4672 65.9722 47.1093C65.969 47.3575 66.0608 47.5992 66.2252 47.7853C69.5554 51.5541 75.7422 60.3406 75.7422 67.6297C75.7422 73.9557 70.1607 77.2133 66.0783 78.4671C65.2732 78.7144 64.8515 79.9563 64.9981 80.7857C65.2316 82.1062 64.8337 83.9766 62.7481 86.2197C60.7108 88.4109 59.1566 89.1422 57.9366 89.7163C56.6228 90.3345 55.6965 90.7703 54.9718 92.6506C54.9336 92.7497 54.8378 92.8197 54.7315 92.8197C54.7194 92.8197 54.7075 92.8189 54.6958 92.8172C54.6838 92.819 54.6716 92.8199 54.6591 92.8199C54.5529 92.8199 54.4571 92.7499 54.4188 92.6507C53.6941 90.7704 52.7679 90.3346 51.4541 89.7164C50.2341 89.1423 48.6799 88.411 46.6426 86.2199C44.557 83.9768 44.1591 82.1064 44.3926 80.7858C44.5392 79.9565 44.1175 78.7146 43.3124 78.4673C39.2299 77.2135 33.6484 73.9559 33.6484 67.6299C33.6484 60.3407 39.8353 51.5543 43.1654 47.7854C43.3298 47.5994 43.4216 47.3577 43.4184 47.1094C43.3459 41.4673 41.7015 38.8966 40.1556 37.9045C39.4799 37.4709 38.9344 36.4464 39.4114 35.8006C41.384 33.1302 43.3719 32.2294 44.9827 32.1515C45.9446 32.105 48.0391 30.9532 48.5344 30.1274C49.8203 27.9835 52.3872 25.6477 53.9691 24.2083C54.1209 24.0701 54.2637 23.9402 54.3954 23.8195C54.4526 23.7671 54.5632 23.7399 54.6407 23.7399C54.6597 23.7399 54.6778 23.7416 54.695 23.7449C54.7124 23.7415 54.7307 23.7397 54.75 23.7397C54.8275 23.7397 54.9381 23.767 54.9953 23.8193C55.127 23.94 55.2697 24.07 55.4216 24.2081Z" fill="#FFCE7B"/>
<path d="M60.8562 30.1272L60.6418 30.2558L60.8562 30.1272ZM55.4216 24.2081L55.2533 24.393V24.393L55.4216 24.2081ZM64.408 32.1514L64.42 31.9017H64.42L64.408 32.1514ZM69.9793 35.8005L69.7782 35.949L69.9793 35.8005ZM69.2351 37.9043L69.3701 38.1147V38.1147L69.2351 37.9043ZM65.9722 47.1093L65.7222 47.1061V47.1061L65.9722 47.1093ZM66.2252 47.7853L66.4126 47.6198V47.6197L66.2252 47.7853ZM66.0783 78.4671L66.1517 78.7061L66.0783 78.4671ZM64.9981 80.7857L65.2443 80.7421L64.9981 80.7857ZM62.7481 86.2197L62.9311 86.39L62.7481 86.2197ZM57.9366 89.7163L57.8301 89.4901L57.9366 89.7163ZM54.9718 92.6506L55.2051 92.7405L55.2051 92.7405L54.9718 92.6506ZM54.6958 92.8172L54.7309 92.5697L54.6953 92.5647L54.6597 92.5699L54.6958 92.8172ZM54.4188 92.6507L54.1856 92.7406L54.1856 92.7406L54.4188 92.6507ZM51.4541 89.7164L51.5605 89.4902L51.4541 89.7164ZM46.6426 86.2199L46.4595 86.3901L46.6426 86.2199ZM44.3926 80.7858L44.1464 80.7423L44.3926 80.7858ZM43.3124 78.4673L43.239 78.7063H43.239L43.3124 78.4673ZM43.1654 47.7854L43.3528 47.951L43.1654 47.7854ZM43.4184 47.1094L43.6684 47.1062L43.4184 47.1094ZM40.1556 37.9045L40.0205 38.1149V38.1149L40.1556 37.9045ZM39.4114 35.8006L39.6125 35.9491L39.4114 35.8006ZM44.9827 32.1515L44.9706 31.9018L44.9827 32.1515ZM48.5344 30.1274L48.32 29.9988L48.5344 30.1274ZM53.9691 24.2083L54.1373 24.3932V24.3932L53.9691 24.2083ZM54.3954 23.8195L54.2265 23.6352L54.2265 23.6352L54.3954 23.8195ZM54.695 23.7449L54.6482 23.9905L54.6953 23.9994L54.7424 23.9903L54.695 23.7449ZM54.9953 23.8193L54.8263 24.0036V24.0036L54.9953 23.8193ZM61.0706 29.9986C59.7619 27.8166 57.1631 25.4548 55.5898 24.0232L55.2533 24.393C56.8438 25.8403 59.3789 28.1501 60.6418 30.2558L61.0706 29.9986ZM64.42 31.9017C64.2175 31.8919 63.9345 31.8214 63.6047 31.6976C63.279 31.5753 62.9231 31.4069 62.5797 31.2137C62.2362 31.0204 61.9096 30.805 61.6411 30.5902C61.3687 30.3722 61.1719 30.1674 61.0706 29.9986L60.6418 30.2558C60.7883 30.5 61.039 30.7488 61.3287 30.9806C61.6223 31.2155 61.9723 31.4457 62.3346 31.6495C62.6969 31.8533 63.076 32.0331 63.429 32.1657C63.778 32.2967 64.1175 32.3876 64.3959 32.4011L64.42 31.9017ZM70.1803 35.6519C68.1748 32.9368 66.1235 31.984 64.42 31.9017L64.3959 32.4011C65.9142 32.4745 67.8386 33.3232 69.7782 35.949L70.1803 35.6519ZM69.3701 38.1147C69.7519 37.8698 70.0903 37.4647 70.2706 37.0272C70.4502 36.5916 70.4906 36.0719 70.1803 35.6519L69.7782 35.949C69.945 36.1748 69.9511 36.4902 69.8083 36.8367C69.6662 37.1813 69.394 37.5053 69.1001 37.6939L69.3701 38.1147ZM66.2222 47.1125C66.2942 41.5078 67.9268 39.0411 69.3701 38.1147L69.1001 37.6939C67.4517 38.7518 65.7952 41.4266 65.7222 47.1061L66.2222 47.1125ZM66.4126 47.6197C66.2883 47.4791 66.2198 47.2973 66.2222 47.1125L65.7222 47.1061C65.7182 47.4178 65.8333 47.7193 66.0379 47.9508L66.4126 47.6197ZM75.9922 67.6297C75.9922 63.9226 74.422 59.8592 72.4517 56.2672C70.4787 52.6699 68.0882 49.5161 66.4126 47.6198L66.0379 47.9508C67.6924 49.8233 70.0605 52.9471 72.0133 56.5076C73.9691 60.0733 75.4922 64.0477 75.4922 67.6297H75.9922ZM66.1517 78.7061C68.2163 78.072 70.6695 76.929 72.6109 75.1341C74.5572 73.3346 75.9922 70.8756 75.9922 67.6297H75.4922C75.4922 70.7098 74.1365 73.0426 72.2715 74.7669C70.4015 76.4958 68.0228 77.6084 66.0049 78.2282L66.1517 78.7061ZM65.2443 80.7421C65.1805 80.3815 65.2398 79.9126 65.4116 79.5053C65.5854 79.0933 65.8496 78.7989 66.1517 78.7061L66.0049 78.2282C65.5019 78.3826 65.1527 78.8328 64.951 79.311C64.7473 79.7938 64.669 80.3604 64.7519 80.8292L65.2443 80.7421ZM62.9311 86.39C65.0538 84.107 65.4951 82.1608 65.2443 80.7421L64.7519 80.8292C64.9681 82.0517 64.6135 83.8462 62.565 86.0495L62.9311 86.39ZM58.043 89.9425C59.2767 89.362 60.863 88.6143 62.9311 86.39L62.565 86.0495C60.5585 88.2075 59.0365 88.9224 57.8301 89.4901L58.043 89.9425ZM55.2051 92.7405C55.5561 91.8298 55.9479 91.288 56.397 90.8991C56.8528 90.5043 57.3802 90.2543 58.043 89.9425L57.8301 89.4901C57.1791 89.7964 56.5865 90.0735 56.0696 90.5212C55.5459 90.9748 55.1123 91.591 54.7385 92.5607L55.2051 92.7405ZM54.7315 93.0697C54.948 93.0697 55.1322 92.9295 55.2051 92.7405L54.7385 92.5607C54.7374 92.5635 54.7351 92.5666 54.7322 92.5687C54.7296 92.5705 54.7292 92.5697 54.7315 92.5697V93.0697ZM54.6607 93.0648C54.684 93.0681 54.7077 93.0697 54.7315 93.0697V92.5697L54.7309 92.5697L54.6607 93.0648ZM54.6597 92.5699L54.6591 92.5699V93.0699C54.6837 93.0699 54.708 93.0681 54.7319 93.0646L54.6597 92.5699ZM54.6591 92.5699C54.6615 92.5699 54.6611 92.5707 54.6584 92.5688C54.6555 92.5667 54.6532 92.5637 54.6521 92.5608L54.1856 92.7406C54.2584 92.9297 54.4426 93.0699 54.6591 93.0699V92.5699ZM54.6521 92.5608C54.2784 91.5912 53.8448 90.9749 53.3211 90.5213C52.8042 90.0736 52.2116 89.7965 51.5605 89.4902L51.3477 89.9426C52.0104 90.2545 52.5378 90.5044 52.9937 90.8993C53.4427 91.2882 53.8346 91.83 54.1856 92.7406L54.6521 92.5608ZM51.5605 89.4902C50.3542 88.9226 48.8322 88.2076 46.8257 86.0496L46.4595 86.3901C48.5277 88.6144 50.114 89.3621 51.3477 89.9426L51.5605 89.4902ZM46.8257 86.0496C44.7771 83.8464 44.4226 82.0518 44.6388 80.8293L44.1464 80.7423C43.8955 82.161 44.3368 84.1071 46.4595 86.3901L46.8257 86.0496ZM44.6388 80.8293C44.7216 80.3606 44.6434 79.7939 44.4397 79.3111C44.238 78.8329 43.8887 78.3828 43.3858 78.2283L43.239 78.7063C43.5411 78.7991 43.8052 79.0935 43.979 79.5054C44.1508 79.9127 44.2101 80.3817 44.1464 80.7423L44.6388 80.8293ZM43.3858 78.2283C41.3679 77.6086 38.9891 76.4959 37.1192 74.7671C35.2541 73.0427 33.8984 70.71 33.8984 67.6299H33.3984C33.3984 70.8758 34.8335 73.3348 36.7798 75.1342C38.7212 76.9291 41.1744 78.0722 43.239 78.7063L43.3858 78.2283ZM33.8984 67.6299C33.8984 64.0479 35.4216 60.0734 37.3773 56.5077C39.3302 52.9473 41.6982 49.8235 43.3528 47.951L42.9781 47.6199C41.3025 49.5162 38.912 52.67 36.9389 56.2673C34.9687 59.8594 33.3984 63.9227 33.3984 67.6299H33.8984ZM43.3528 47.951C43.5573 47.7195 43.6724 47.4179 43.6684 47.1062L43.1685 47.1126C43.1708 47.2974 43.1023 47.4793 42.9781 47.6199L43.3528 47.951ZM43.6684 47.1062C43.5954 41.4267 41.939 38.752 40.2906 37.6941L40.0205 38.1149C41.4639 39.0412 43.0964 41.508 43.1685 47.1126L43.6684 47.1062ZM40.2906 37.6941C39.9966 37.5054 39.7244 37.1815 39.5823 36.8368C39.4395 36.4904 39.4457 36.1749 39.6125 35.9491L39.2103 35.652C38.9001 36.072 38.9405 36.5917 39.1201 37.0274C39.3004 37.4648 39.6388 37.8699 40.0205 38.1149L40.2906 37.6941ZM39.6125 35.9491C41.5521 33.3234 43.4765 32.4746 44.9948 32.4012L44.9706 31.9018C43.2672 31.9841 41.2159 32.937 39.2103 35.652L39.6125 35.9491ZM44.9948 32.4012C45.2732 32.3878 45.6127 32.2968 45.9617 32.1658C46.3147 32.0333 46.6937 31.8534 47.0561 31.6496C47.4183 31.4459 47.7683 31.2156 48.0619 30.9807C48.3516 30.749 48.6024 30.5001 48.7488 30.256L48.32 29.9988C48.2188 30.1676 48.022 30.3724 47.7496 30.5903C47.4811 30.8051 47.1545 31.0206 46.811 31.2138C46.4675 31.407 46.1117 31.5754 45.7859 31.6977C45.4562 31.8215 45.1731 31.892 44.9706 31.9018L44.9948 32.4012ZM48.7488 30.256C50.0118 28.1502 52.5469 25.8404 54.1373 24.3932L53.8008 24.0234C52.2276 25.4549 49.6288 27.8167 48.32 29.9988L48.7488 30.256ZM54.1373 24.3932C54.2891 24.2551 54.4322 24.1248 54.5643 24.0038L54.2265 23.6352C54.0952 23.7555 53.9528 23.8851 53.8008 24.0234L54.1373 24.3932ZM54.5643 24.0038C54.5577 24.0098 54.5549 24.0105 54.5597 24.0081C54.564 24.0059 54.5716 24.0027 54.5823 23.9995C54.6051 23.9926 54.6279 23.9899 54.6407 23.9899V23.4899C54.5759 23.4899 54.5047 23.5007 54.4385 23.5206C54.3756 23.5395 54.2938 23.5735 54.2265 23.6352L54.5643 24.0038ZM54.6407 23.9899C54.6446 23.9899 54.647 23.9902 54.6482 23.9905L54.7418 23.4993C54.7085 23.493 54.6747 23.4899 54.6407 23.4899V23.9899ZM54.75 23.4897C54.7155 23.4897 54.6812 23.4929 54.6475 23.4994L54.7424 23.9903C54.7436 23.9901 54.746 23.9897 54.75 23.9897V23.4897ZM55.1642 23.635C55.0969 23.5733 55.0151 23.5393 54.9521 23.5205C54.886 23.5006 54.8148 23.4897 54.75 23.4897V23.9897C54.7627 23.9897 54.7856 23.9925 54.8084 23.9993C54.8191 24.0026 54.8266 24.0057 54.8309 24.0079C54.8357 24.0103 54.833 24.0097 54.8263 24.0036L55.1642 23.635ZM55.5898 24.0232C55.4379 23.885 55.2955 23.7554 55.1642 23.635L54.8263 24.0036C54.9584 24.1247 55.1016 24.2549 55.2533 24.393L55.5898 24.0232Z" fill="#3E70BC"/>
<path d="M54.6973 97C49.5426 91.39 50.0796 94.25 44.3879 88.75C40.9955 85.4718 41.0616 83.7492 41.1411 82.2046C41.1631 81.7774 40.895 81.4007 40.4977 81.2422C36.2772 79.5587 30.0076 74.8653 30.3198 67.19C30.6343 59.4581 36.1908 50.8216 39.7303 46.7955C39.894 46.6093 39.9858 46.3669 39.9819 46.119C39.8807 39.6812 37.2657 39.7085 35.6054 38.6997C35.3076 38.5187 35.1845 38.1608 35.2772 37.8248C36.3105 34.0806 41.0732 29.3698 44.4797 29.4083C45.0319 29.4145 45.6244 29.1547 45.9232 28.6903C47.7428 25.8615 53.7396 20 54.6973 20" stroke="#3E70BC" stroke-width="1.5" stroke-linecap="round" stroke-linejoin="round"/>
<path d="M54.6972 97C59.8519 91.39 59.315 94.25 65.0066 88.75C68.399 85.4718 68.333 83.7492 68.2534 82.2046C68.2314 81.7774 68.4995 81.4007 68.8968 81.2422C73.1174 79.5587 79.3869 74.8653 79.0747 67.19C78.7602 59.4581 73.2038 50.8216 69.6642 46.7955C69.5005 46.6093 69.4087 46.3669 69.4126 46.119C69.5138 39.6812 72.1289 39.7085 73.7891 38.6997C74.087 38.5187 74.21 38.1608 74.1173 37.8248C73.0841 34.0806 68.3213 29.3698 64.9148 29.4083C64.3627 29.4145 63.7701 29.1547 63.4714 28.6903C61.6518 25.8615 55.6549 20 54.6972 20" stroke="#3E70BC" stroke-width="1.5" stroke-linecap="round" stroke-linejoin="round"/>
</svg>
