<svg width="536" height="536" viewBox="0 0 536 536" fill="none" xmlns="http://www.w3.org/2000/svg">
<mask id="path-1-inside-1_1133_329033" fill="white">
<path fill-rule="evenodd" clip-rule="evenodd" d="M268 528C411.594 528 528 411.594 528 268C528 124.406 411.594 8 268 8C124.406 8 8 124.406 8 268C8 411.594 124.406 528 268 528ZM268 515C404.414 515 515 404.414 515 268C515 131.586 404.414 21 268 21C131.586 21 21 131.586 21 268C21 404.414 131.586 515 268 515Z"/>
</mask>
<path fill-rule="evenodd" clip-rule="evenodd" d="M268 528C411.594 528 528 411.594 528 268C528 124.406 411.594 8 268 8C124.406 8 8 124.406 8 268C8 411.594 124.406 528 268 528ZM268 515C404.414 515 515 404.414 515 268C515 131.586 404.414 21 268 21C131.586 21 21 131.586 21 268C21 404.414 131.586 515 268 515Z" fill="#FFCE7B"/>
<path d="M527 268C527 411.042 411.042 527 268 527V529C412.146 529 529 412.146 529 268H527ZM268 9C411.042 9 527 124.958 527 268H529C529 123.854 412.146 7 268 7V9ZM9 268C9 124.958 124.958 9 268 9V7C123.854 7 7 123.854 7 268H9ZM268 527C124.958 527 9 411.042 9 268H7C7 412.146 123.854 529 268 529V527ZM514 268C514 403.862 403.862 514 268 514V516C404.967 516 516 404.967 516 268H514ZM268 22C403.862 22 514 132.138 514 268H516C516 131.033 404.967 20 268 20V22ZM22 268C22 132.138 132.138 22 268 22V20C131.033 20 20 131.033 20 268H22ZM268 514C132.138 514 22 403.862 22 268H20C20 404.967 131.033 516 268 516V514Z" fill="#3E70BC" mask="url(#path-1-inside-1_1133_329033)"/>
<path fill-rule="evenodd" clip-rule="evenodd" d="M278.166 519.967C279.344 519.947 280.318 521.004 280.341 522.329C280.364 523.655 279.428 524.746 278.25 524.766C277.223 524.784 276.351 523.982 276.129 522.897L271.411 522.98C271.191 523.225 270.81 523.39 270.374 523.398C269.938 523.405 269.551 523.253 269.323 523.016L264.551 523.099L264.533 522.088L265.525 522.07L265.475 519.177L266.516 519.158L266.536 520.264L267.453 520.248L267.434 519.142L268.476 519.124L268.526 522.018L269.328 522.004C269.551 521.772 269.921 521.617 270.343 521.61C270.764 521.602 271.14 521.744 271.371 521.968L276.116 521.886C276.308 520.805 277.146 519.985 278.166 519.967Z" fill="#3E70BC"/>
<path fill-rule="evenodd" clip-rule="evenodd" d="M257.834 16.0329C256.656 16.0535 255.682 14.9958 255.659 13.6705C255.636 12.3452 256.572 11.2542 257.75 11.2337C258.777 11.2157 259.649 12.0181 259.871 13.1028L264.589 13.0205C264.809 12.7755 265.19 12.6099 265.626 12.6023C266.062 12.5947 266.449 12.7469 266.677 12.984L271.449 12.9007L271.467 13.9123L270.475 13.9296L270.525 16.8233L269.484 16.8415L269.464 15.7358L268.547 15.7518L268.566 16.8575L267.524 16.8757L267.474 13.982L266.672 13.996C266.449 14.2278 266.079 14.3829 265.657 14.3903C265.236 14.3976 264.86 14.2555 264.629 14.0317L259.884 14.1145C259.692 15.1947 258.854 16.0151 257.834 16.0329Z" fill="#3E70BC"/>
<path fill-rule="evenodd" clip-rule="evenodd" d="M16.0329 278.166C16.0535 279.344 14.9958 280.318 13.6705 280.341C12.3452 280.364 11.2542 279.428 11.2337 278.25C11.2157 277.223 12.0181 276.351 13.1028 276.129L13.0205 271.411C12.7755 271.191 12.6099 270.81 12.6023 270.374C12.5947 269.938 12.7469 269.551 12.984 269.323L12.9007 264.551L13.9123 264.533L13.9296 265.525L16.8233 265.475L16.8415 266.516L15.7358 266.536L15.7518 267.453L16.8575 267.434L16.8757 268.476L13.982 268.526L13.996 269.328C14.2278 269.551 14.3829 269.921 14.3903 270.343C14.3976 270.764 14.2555 271.14 14.0317 271.371L14.1145 276.116C15.1947 276.308 16.0151 277.146 16.0329 278.166Z" fill="#3E70BC"/>
<path fill-rule="evenodd" clip-rule="evenodd" d="M519.967 257.834C519.946 256.656 521.004 255.682 522.329 255.659C523.654 255.636 524.745 256.572 524.766 257.75C524.784 258.777 523.981 259.649 522.897 259.871L522.979 264.589C523.224 264.809 523.39 265.19 523.397 265.626C523.405 266.062 523.253 266.449 523.016 266.677L523.099 271.449L522.087 271.467L522.07 270.475L519.176 270.525L519.158 269.484L520.264 269.464L520.248 268.547L519.142 268.566L519.124 267.524L522.017 267.474L522.003 266.672C521.772 266.449 521.617 266.079 521.609 265.657C521.602 265.236 521.744 264.86 521.968 264.629L521.885 259.884C520.805 259.692 519.984 258.854 519.967 257.834Z" fill="#3E70BC"/>
<path fill-rule="evenodd" clip-rule="evenodd" d="M97.0209 453.355C97.8685 454.174 97.8091 455.61 96.8884 456.564C95.9676 457.517 94.5341 457.627 93.6866 456.808C92.9474 456.094 92.8981 454.91 93.5085 453.987L90.114 450.709C89.7851 450.726 89.3986 450.574 89.085 450.271C88.7714 449.968 88.6057 449.587 88.6117 449.258L85.1784 445.942L85.8813 445.215L86.595 445.904L88.6054 443.822L89.3549 444.546L88.5867 445.341L89.2469 445.979L90.0151 445.183L90.7646 445.907L88.7542 447.989L89.3309 448.546C89.6525 448.54 90.024 448.692 90.3272 448.985C90.6305 449.278 90.7955 449.644 90.8005 449.965L94.2145 453.262C95.1138 452.634 96.2871 452.647 97.0209 453.355Z" fill="#3E70BC"/>
<path fill-rule="evenodd" clip-rule="evenodd" d="M438.979 82.6446C438.132 81.8262 438.191 80.3897 439.112 79.4363C440.032 78.4828 441.466 78.3733 442.313 79.1918C443.053 79.9056 443.102 81.0896 442.492 82.0133L445.886 85.2913C446.215 85.2737 446.601 85.4261 446.915 85.7289C447.229 86.0317 447.394 86.4127 447.388 86.742L450.822 90.0575L450.119 90.7853L449.405 90.096L447.395 92.1779L446.645 91.4541L447.413 90.6586L446.753 90.0211L445.985 90.8166L445.235 90.0928L447.246 88.011L446.669 87.4541C446.348 87.4602 445.976 87.3081 445.673 87.0152C445.37 86.7224 445.205 86.3564 445.199 86.0348L441.785 82.7379C440.886 83.3663 439.713 83.3533 438.979 82.6446Z" fill="#3E70BC"/>
<path fill-rule="evenodd" clip-rule="evenodd" d="M82.6436 97.0219C81.8252 97.8695 80.3888 97.8101 79.4353 96.8893C78.4818 95.9686 78.3724 94.5351 79.1908 93.6876C79.9047 92.9483 81.0887 92.899 82.0123 93.5095L85.2903 90.115C85.2727 89.7861 85.4251 89.3995 85.7279 89.086C86.0307 88.7724 86.4117 88.6066 86.741 88.6127L90.0565 85.1794L90.7843 85.8822L90.0951 86.596L92.1769 88.6064L91.4532 89.3559L90.6577 88.5877L90.0201 89.2479L90.8156 90.0161L90.0919 90.7656L88.01 88.7551L87.4531 89.3318C87.4593 89.6534 87.3071 90.0249 87.0143 90.3282C86.7214 90.6314 86.3555 90.7965 86.0338 90.8015L82.737 94.2155C83.3653 95.1148 83.3523 96.288 82.6436 97.0219Z" fill="#3E70BC"/>
<path fill-rule="evenodd" clip-rule="evenodd" d="M453.355 438.978C454.174 438.131 455.61 438.19 456.564 439.111C457.517 440.031 457.627 441.465 456.808 442.312C456.094 443.052 454.91 443.101 453.987 442.491L450.709 445.885C450.726 446.214 450.574 446.6 450.271 446.914C449.968 447.228 449.587 447.393 449.258 447.387L445.942 450.821L445.215 450.118L445.904 449.404L443.822 447.394L444.546 446.644L445.341 447.412L445.979 446.752L445.183 445.984L445.907 445.234L447.989 447.245L448.546 446.668C448.54 446.347 448.692 445.975 448.985 445.672C449.278 445.369 449.644 445.204 449.965 445.198L453.262 441.784C452.634 440.885 452.647 439.712 453.355 438.978Z" fill="#3E70BC"/>
<path d="M287.54 14.6114C285.679 12.7415 282.983 14.3705 282.983 14.3705C282.983 14.3705 285.495 16.2744 287.54 14.6114Z" fill="#3E70BC"/>
<path d="M309.483 17.2054C307.791 15.1796 304.963 16.5663 304.963 16.5663C304.963 16.5663 307.301 18.6829 309.483 17.2054Z" fill="#3E70BC"/>
<path d="M309.483 17.2054C307.791 15.1796 304.963 16.5663 304.963 16.5663C304.963 16.5663 307.301 18.6829 309.483 17.2054Z" fill="#3E70BC"/>
<path d="M331.119 21.7144C329.609 19.5481 326.672 20.6819 326.672 20.6819C326.672 20.6819 328.817 22.9951 331.119 21.7144Z" fill="#3E70BC"/>
<path d="M352.282 28.0984C350.965 25.8082 347.941 26.6804 347.941 26.6804C347.941 26.6804 349.878 29.1727 352.282 28.0984Z" fill="#3E70BC"/>
<path d="M372.811 36.3136C371.698 33.9169 368.609 34.5209 368.609 34.5209C368.609 34.5209 370.323 37.1732 372.811 36.3136Z" fill="#3E70BC"/>
<path d="M392.55 46.2938C391.649 43.8088 388.52 44.14 388.52 44.14C388.52 44.14 389.997 46.9322 392.55 46.2938Z" fill="#3E70BC"/>
<path d="M411.348 57.9631C410.666 55.4087 407.52 55.4646 407.52 55.4646C407.52 55.4646 408.749 58.3755 411.348 57.9631Z" fill="#3E70BC"/>
<path d="M429.064 71.2367C428.606 68.6324 425.467 68.4126 425.467 68.4126C425.467 68.4126 426.439 71.4199 429.064 71.2367Z" fill="#3E70BC"/>
<path d="M460.714 102.171C460.714 99.5261 457.66 98.7619 457.66 98.7619C457.66 98.7619 458.098 101.893 460.714 102.171Z" fill="#3E70BC"/>
<path d="M474.41 119.596C474.639 116.962 471.663 115.933 471.663 115.933C471.663 115.933 471.827 119.09 474.41 119.596Z" fill="#3E70BC"/>
<path d="M486.542 138.158C486.998 135.554 484.122 134.268 484.122 134.268C484.122 134.268 484.012 137.428 486.542 138.158Z" fill="#3E70BC"/>
<path d="M497.018 157.707C497.698 155.153 494.945 153.621 494.945 153.621C494.945 153.621 494.561 156.759 497.018 157.707Z" fill="#3E70BC"/>
<path d="M505.757 178.099C506.657 175.614 504.047 173.847 504.047 173.847C504.047 173.847 503.393 176.939 505.757 178.099Z" fill="#3E70BC"/>
<path d="M512.698 199.18C513.809 196.783 511.363 194.794 511.363 194.794C511.363 194.794 510.443 197.817 512.698 199.18Z" fill="#3E70BC"/>
<path d="M517.782 220.788C519.097 218.498 516.832 216.302 516.832 216.302C516.832 216.302 515.653 219.233 517.782 220.788Z" fill="#3E70BC"/>
<path d="M520.973 242.759C522.482 240.593 520.416 238.207 520.416 238.207C520.416 238.207 518.987 241.023 520.973 242.759Z" fill="#3E70BC"/>
<path d="M521.323 285.648C523.192 283.78 521.563 281.073 521.563 281.073C521.563 281.073 519.659 283.595 521.323 285.648Z" fill="#3E70BC"/>
<path d="M518.731 307.677C520.757 305.978 519.37 303.14 519.37 303.14C519.37 303.14 517.253 305.487 518.731 307.677Z" fill="#3E70BC"/>
<path d="M518.731 307.677C520.757 305.978 519.37 303.14 519.37 303.14C519.37 303.14 517.253 305.487 518.731 307.677Z" fill="#3E70BC"/>
<path d="M514.226 329.395C516.392 327.879 515.258 324.93 515.258 324.93C515.258 324.93 512.945 327.084 514.226 329.395Z" fill="#3E70BC"/>
<path d="M507.844 350.639C510.134 349.318 509.261 346.282 509.261 346.282C509.261 346.282 506.769 348.226 507.844 350.639Z" fill="#3E70BC"/>
<path d="M499.631 371.246C502.028 370.129 501.423 367.028 501.423 367.028C501.423 367.028 498.771 368.748 499.631 371.246Z" fill="#3E70BC"/>
<path d="M489.655 391.06C492.14 390.156 491.808 387.015 491.808 387.015C491.808 387.015 489.016 388.497 489.655 391.06Z" fill="#3E70BC"/>
<path d="M477.988 409.929C480.542 409.244 480.486 406.086 480.486 406.086C480.486 406.086 477.575 407.32 477.988 409.929Z" fill="#3E70BC"/>
<path d="M464.717 427.712C467.322 427.252 467.541 424.101 467.541 424.101C467.541 424.101 464.534 425.077 464.717 427.712Z" fill="#3E70BC"/>
<path d="M433.786 459.481C436.431 459.48 437.195 456.415 437.195 456.415C437.195 456.415 434.064 456.854 433.786 459.481Z" fill="#3E70BC"/>
<path d="M416.363 473.228C418.997 473.458 420.026 470.471 420.026 470.471C420.026 470.471 416.868 470.635 416.363 473.228Z" fill="#3E70BC"/>
<path d="M397.803 485.403C400.407 485.861 401.692 482.975 401.692 482.975C401.692 482.975 398.533 482.864 397.803 485.403Z" fill="#3E70BC"/>
<path d="M378.254 495.917C380.809 496.601 382.341 493.837 382.341 493.837C382.341 493.837 379.203 493.452 378.254 495.917Z" fill="#3E70BC"/>
<path d="M357.864 504.689C360.349 505.592 362.116 502.972 362.116 502.972C362.116 502.972 359.024 502.315 357.864 504.689Z" fill="#3E70BC"/>
<path d="M336.784 511.653C339.181 512.769 341.17 510.313 341.17 510.313C341.17 510.313 338.146 509.389 336.784 511.653Z" fill="#3E70BC"/>
<path d="M315.175 516.753C317.466 518.074 319.661 515.8 319.661 515.8C319.661 515.8 316.73 514.617 315.175 516.753Z" fill="#3E70BC"/>
<path d="M293.206 519.954C295.372 521.469 297.758 519.395 297.758 519.395C297.758 519.395 294.941 517.961 293.206 519.954Z" fill="#3E70BC"/>
<path d="M250.245 521.301C252.121 523.179 254.838 521.543 254.838 521.543C254.838 521.543 252.307 519.631 250.245 521.301Z" fill="#3E70BC"/>
<path d="M228.131 518.699C229.836 520.732 232.686 519.34 232.686 519.34C232.686 519.34 230.33 517.215 228.131 518.699Z" fill="#3E70BC"/>
<path d="M228.131 518.699C229.836 520.732 232.686 519.34 232.686 519.34C232.686 519.34 230.33 517.215 228.131 518.699Z" fill="#3E70BC"/>
<path d="M206.33 514.175C207.851 516.35 210.811 515.211 210.811 515.211C210.811 515.211 208.649 512.889 206.33 514.175Z" fill="#3E70BC"/>
<path d="M185.002 507.768C186.329 510.067 189.377 509.191 189.377 509.191C189.377 509.191 187.425 506.689 185.002 507.768Z" fill="#3E70BC"/>
<path d="M164.316 499.521C165.437 501.928 168.55 501.321 168.55 501.321C168.55 501.321 166.823 498.658 164.316 499.521Z" fill="#3E70BC"/>
<path d="M144.426 489.503C145.333 491.998 148.487 491.665 148.487 491.665C148.487 491.665 146.999 488.862 144.426 489.503Z" fill="#3E70BC"/>
<path d="M125.483 477.789C126.17 480.354 129.341 480.297 129.341 480.297C129.341 480.297 128.102 477.375 125.483 477.789Z" fill="#3E70BC"/>
<path d="M107.632 464.465C108.093 467.08 111.256 467.3 111.256 467.3C111.256 467.3 110.277 464.281 107.632 464.465Z" fill="#3E70BC"/>
<path d="M75.7403 433.409C75.7408 436.064 78.8179 436.831 78.8179 436.831C78.8179 436.831 78.3774 433.688 75.7403 433.409Z" fill="#3E70BC"/>
<path d="M61.9413 415.915C61.7107 418.56 64.7093 419.592 64.7093 419.592C64.7093 419.592 64.5441 416.422 61.9413 415.915Z" fill="#3E70BC"/>
<path d="M49.7186 397.28C49.2585 399.895 52.1559 401.185 52.1559 401.185C52.1559 401.185 52.2673 398.013 49.7186 397.28Z" fill="#3E70BC"/>
<path d="M39.1636 377.651C38.4776 380.216 41.2517 381.754 41.2517 381.754C41.2517 381.754 41.6388 378.604 39.1636 377.651Z" fill="#3E70BC"/>
<path d="M30.3581 357.178C29.4515 359.673 32.0811 361.447 32.0811 361.447C32.0811 361.447 32.7411 358.343 30.3581 357.178Z" fill="#3E70BC"/>
<path d="M23.3664 336.012C22.2461 338.419 24.7112 340.416 24.7112 340.416C24.7112 340.416 25.639 337.38 23.3664 336.012Z" fill="#3E70BC"/>
<path d="M18.246 314.318C16.9204 316.618 19.2023 318.822 19.2023 318.822C19.2023 318.822 20.3908 315.88 18.246 314.318Z" fill="#3E70BC"/>
<path d="M15.0327 292.259C13.512 294.434 15.5933 296.83 15.5933 296.83C15.5933 296.83 17.0335 294.002 15.0327 292.259Z" fill="#3E70BC"/>
<path d="M14.6114 248.459C12.7415 250.32 14.3705 253.016 14.3705 253.016C14.3705 253.016 16.2744 250.504 14.6114 248.459Z" fill="#3E70BC"/>
<path d="M17.2054 226.516C15.1796 228.208 16.5663 231.036 16.5663 231.036C16.5663 231.036 18.6829 228.698 17.2054 226.516Z" fill="#3E70BC"/>
<path d="M17.2054 226.516C15.1796 228.208 16.5663 231.036 16.5663 231.036C16.5663 231.036 18.6829 228.698 17.2054 226.516Z" fill="#3E70BC"/>
<path d="M21.7144 204.88C19.5481 206.39 20.6819 209.327 20.6819 209.327C20.6819 209.327 22.9951 207.182 21.7144 204.88Z" fill="#3E70BC"/>
<path d="M28.0984 183.717C25.8082 185.034 26.6804 188.058 26.6804 188.058C26.6804 188.058 29.1727 186.121 28.0984 183.717Z" fill="#3E70BC"/>
<path d="M36.3136 163.188C33.9169 164.301 34.5209 167.39 34.5209 167.39C34.5209 167.39 37.1732 165.676 36.3136 163.188Z" fill="#3E70BC"/>
<path d="M46.2938 143.449C43.8088 144.35 44.14 147.479 44.14 147.479C44.14 147.479 46.9322 146.002 46.2938 143.449Z" fill="#3E70BC"/>
<path d="M57.9631 124.651C55.4087 125.333 55.4646 128.479 55.4646 128.479C55.4646 128.479 58.3755 127.25 57.9631 124.651Z" fill="#3E70BC"/>
<path d="M71.2367 106.935C68.6324 107.393 68.4126 110.532 68.4126 110.532C68.4126 110.532 71.4199 109.56 71.2367 106.935Z" fill="#3E70BC"/>
<path d="M102.171 75.2846C99.5261 75.2854 98.7619 78.3389 98.7619 78.3389C98.7619 78.3389 101.893 77.9014 102.171 75.2846Z" fill="#3E70BC"/>
<path d="M119.596 61.5887C116.962 61.3602 115.933 64.3359 115.933 64.3359C115.933 64.3359 119.09 64.1716 119.596 61.5887Z" fill="#3E70BC"/>
<path d="M138.158 49.4575C135.554 49.0013 134.268 51.8766 134.268 51.8766C134.268 51.8766 137.428 51.9867 138.158 49.4575Z" fill="#3E70BC"/>
<path d="M157.707 38.9814C155.153 38.301 153.621 41.0539 153.621 41.0539C153.621 41.0539 156.759 41.4377 157.707 38.9814Z" fill="#3E70BC"/>
<path d="M178.099 30.2411C175.614 29.3418 173.847 31.9514 173.847 31.9514C173.847 31.9514 176.939 32.6059 178.099 30.2411Z" fill="#3E70BC"/>
<path d="M199.18 23.301C196.783 22.1896 194.794 24.636 194.794 24.636C194.794 24.636 197.817 25.5563 199.18 23.301Z" fill="#3E70BC"/>
<path d="M220.788 18.2175C218.498 16.9024 216.302 19.1671 216.302 19.1671C216.302 19.1671 219.233 20.3461 220.788 18.2175Z" fill="#3E70BC"/>
<path d="M242.759 15.0257C240.593 13.5169 238.207 15.5826 238.207 15.5826C238.207 15.5826 241.023 17.0113 242.759 15.0257Z" fill="#3E70BC"/>
</svg>
